<?xml version="1.0" encoding="UTF-8"?>
<!DOCTYPE svg PUBLIC "-//W3C//DTD SVG 1.1//EN" "http://www.w3.org/Graphics/SVG/1.1/DTD/svg11.dtd">
<!-- Creator: CorelDRAW 2020 (64 Bit) -->
<svg xmlns="http://www.w3.org/2000/svg" xml:space="preserve" width="167.155mm" height="56.2811mm" version="1.1" style="shape-rendering:geometricPrecision; text-rendering:geometricPrecision; image-rendering:optimizeQuality; fill-rule:evenodd; clip-rule:evenodd"
viewBox="0 0 17205.82 5793.22"
 xmlns:xlink="http://www.w3.org/1999/xlink"
 xmlns:xodm="http://www.corel.com/coreldraw/odm/2003">
 <defs>
  <style type="text/css">
   <![CDATA[
    .fil0 {fill:black}
    .fil1 {fill:#FA47FE;fill-rule:nonzero}
    .fil2 {fill:white;fill-rule:nonzero}
    .fil12 {fill:white;fill-rule:nonzero}
    .fil10 {fill:url(#id0);fill-rule:nonzero}
    .fil5 {fill:url(#id1);fill-rule:nonzero}
    .fil11 {fill:url(#id2);fill-rule:nonzero}
    .fil9 {fill:url(#id3);fill-rule:nonzero}
    .fil6 {fill:url(#id4);fill-rule:nonzero}
    .fil3 {fill:url(#id5);fill-rule:nonzero}
    .fil7 {fill:url(#id6);fill-rule:nonzero}
    .fil4 {fill:url(#id7);fill-rule:nonzero}
    .fil8 {fill:url(#id8);fill-rule:nonzero}
   ]]>
  </style>
  <linearGradient id="id0" gradientUnits="userSpaceOnUse" x1="7685.48" y1="5125.65" x2="7685.48" y2="507.01">
   <stop offset="0" style="stop-opacity:1; stop-color:#29F1B2"/>
   <stop offset="1" style="stop-opacity:1; stop-color:#00A9FF"/>
  </linearGradient>
  <linearGradient id="id1" gradientUnits="userSpaceOnUse" xlink:href="#id0" x1="11194.29" y1="5087.15" x2="11194.29" y2="2458.13">
  </linearGradient>
  <linearGradient id="id2" gradientUnits="userSpaceOnUse" xlink:href="#id0" x1="2912.85" y1="5118.15" x2="2912.85" y2="542.69">
  </linearGradient>
  <linearGradient id="id3" gradientUnits="userSpaceOnUse" x1="6213.69" y1="4699.37" x2="6213.69" y2="3555.75">
   <stop offset="0" style="stop-opacity:1; stop-color:#511A86"/>
   <stop offset="1" style="stop-opacity:1; stop-color:#18AABA"/>
  </linearGradient>
  <linearGradient id="id4" gradientUnits="userSpaceOnUse" xlink:href="#id3" x1="11540.75" y1="1340.79" x2="11540.75" y2="1313.56">
  </linearGradient>
  <linearGradient id="id5" gradientUnits="userSpaceOnUse" xlink:href="#id0" x1="14846.76" y1="5172.6" x2="14846.76" y2="402.79">
  </linearGradient>
  <linearGradient id="id6" gradientUnits="userSpaceOnUse" xlink:href="#id0" x1="11221.99" y1="2553.9" x2="11221.99" y2="465.69">
  </linearGradient>
  <linearGradient id="id7" gradientUnits="userSpaceOnUse" xlink:href="#id3" x1="12910.66" y1="4498.45" x2="12910.66" y2="4413.94">
  </linearGradient>
  <linearGradient id="id8" gradientUnits="userSpaceOnUse" xlink:href="#id3" x1="6436.69" y1="4914.39" x2="6436.69" y2="4699.37">
  </linearGradient>
 </defs>
 <g id="Camada_x0020_1">
  <metadata id="CorelCorpID_0Corel-Layer"/>
  <g id="_1864637792576">
   <path class="fil0" d="M161.22 1396.24c83.03,-224.25 280.8,-412.23 461.88,-551.28l7.8 -5.99 8.67 -4.67c125.65,-67.65 316.13,-162.92 461.54,-162.92l104.14 0c201.72,-210.07 469.95,-417.86 770.98,-417.86l245.1 0c167.39,0 329.38,104.17 454.54,208.08l157.23 88.4c128.5,-168.98 293.85,-295.68 504.4,-354.18 152.45,-60.03 312.36,-90.65 476.28,-90.65l6.83 0 334.26 37.56c108.21,-63.05 260.71,-142.72 376.25,-142.72l36.62 0c351,0 545.37,230.4 624.62,555.05l2.3 9.43 19.96 246.54 0 21.74c15.42,10.86 30.74,22.07 45.86,33.62l8.13 -25.07c37.15,-114.59 87.71,-222.17 155.04,-311.23 103.19,-252.73 282.27,-451.62 578.54,-455.82l255.88 -38.55 9.14 0c247.03,0 464.33,77.24 629.41,251.01 217.64,-102.79 494.47,-212.54 724.53,-212.54l18.73 0 55.97 17.6 281.12 -32.54 0 16.93c367.95,24.77 714.27,275.09 975.43,514.64l3.54 3.25 3.27 3.51c123.78,132.92 222.17,277.13 292.01,432.79l0 -4.15 2.47 -12.07c24.26,-118.86 77.87,-225.19 149.78,-319.46 46.42,-127.71 127.07,-239.16 225.38,-335.09l4.71 -4.6 5.19 -4.07c156.83,-123.03 339.21,-180 538.21,-180l8.28 0 8.2 1.12c60.41,8.22 136.87,22.87 194.79,57.05 156.46,-82.77 334.52,-150.96 510.42,-154.75l119.56 -29.17 21.22 16 67.48 -5.76 110.85 0 45.3 -11.7 14.14 11.7 11.69 0 49.73 9.47 4.07 -3.73 51.48 2.96c57.76,3.31 117.16,6.99 174.48,14.89 0.78,0.1 1.57,0.22 2.37,0.33l3.29 -3.3 59.45 7.65c160.97,20.71 323.37,43.66 482.6,75.14 89.59,17.71 197.43,40.33 282.13,77.1 301.37,96.66 509.66,269.24 621.29,510.37 72.38,-259.55 412.77,-445.63 626.57,-549.88l6.07 -2.96 6.36 -2.26c153.53,-54.83 325.93,-82.72 487.61,-99.42l6.26 -0.65 6.29 0c187.55,0 386.12,61.36 560.83,132.95 160.96,-45.27 324.08,-87.55 487.83,-120.34 116.93,-23.43 245.89,-45.45 365.38,-45.45 686.74,0 1282.85,231.76 1547.26,902.54l2.12 5.37 1.6 5.55c54.65,189.38 71.64,417.2 81.67,613.52l0.15 3.11 0 3.11c0,326.07 -99.34,632.98 -255.56,914.73 101.81,92 178.53,208.61 178.53,352.83 0,121 -53.87,222.57 -131.14,306.59 -11.55,50.45 -32.58,96.98 -60.26,139.8 58.86,169.18 77.35,357.89 78.67,532.24l16.07 47.2 0 20.21c0,362.72 -80.47,673.92 -251.69,919.35 -150.21,345.78 -433.87,597.69 -870.21,729.08 -151.62,52.92 -327.07,84.54 -485.11,110.76 -259.13,43 -521.87,73.79 -783.08,101.1l-6.32 0.66 -6.36 0c-662.75,0 -1470.28,-100.39 -1969.82,-586.04 -102.65,98.19 -239.34,186.69 -339.72,248.63l-5.62 3.47 -5.96 2.84c-159.34,75.93 -440.66,206.97 -623.54,212.62 -210.11,37.87 -424.77,63.05 -637,84.97l-47.51 4.91 -10.3 -7.73 -220.39 34.18 0 -9.37c-6.96,0.17 -13.88,0.25 -20.71,0.25l-44.13 0c-258.63,0 -514.73,-52.1 -731.08,-199.04 -132.01,-58.93 -270.96,-142.79 -349.01,-268.13 -7.08,7.64 -14.18,15.21 -21.28,22.72 -188.02,206.1 -422.01,328.98 -703.26,328.98l-107.03 0c-297.65,0 -678.5,-33.68 -935.19,-216.29 -250.79,188.53 -544.52,334.6 -863.79,334.6l-129.57 0c-613.65,0 -1113.31,-238.54 -1455.52,-752.99 -5.38,-8.09 -10.64,-16.25 -15.8,-24.48 -67.01,59.3 -138.98,113.27 -213.03,162.64l-2.11 1.38 -309.81 197.42 -811.64 279.87 -124.17 23.5 -11.45 0c-249.01,0 -478.65,-79.27 -687.34,-207.95 -81.71,56.85 -176.49,102.79 -275.07,102.79l-104.99 0 -16.12 -4.51c-146.44,-40.95 -284.44,-119.56 -332.35,-257.46 -92.05,128.38 -222,239.24 -330.59,322.31l-4.53 3.46 -4.83 3.03c-237.35,148.67 -544.08,186.68 -818.72,186.68l-7.14 0 -7.08 -0.83c-312.92,-36.75 -595.94,-205.61 -833.82,-403.98l-10.68 -8.9 -8.4 -11.09c-257.32,-339.37 -479.23,-751.6 -479.23,-1188.21l0 -313.6c0,-191.56 24.24,-389.44 53.68,-578.5 37.26,-239.28 86.53,-477.81 140.8,-714.04 -152.74,-136.84 -194.48,-353.47 -194.48,-556.21l0 -186.85c0,-159.81 65.86,-305.91 161.22,-434.76zm9200.6 25.18l8.84 -17.68c-4.82,-6.3 -9.53,-12.65 -14.12,-19.08 1.91,12.2 3.67,24.46 5.28,36.77z"/>
  </g>
  <g id="_1864637794448">
   <path class="fil1" d="M4410.08 339.99l36.62 0c261.96,0 430.96,153.98 506.08,461.96l18.78 231.91 0 81.69c244.12,157.74 366.19,325.81 366.19,504.2l0 84.51 -32.87 230.97c80.75,288.26 144.59,582.13 192.48,880.71l0 104.22 -52.58 630.03c138.96,155.86 209.39,380.26 209.39,674.14 0,304.22 -181.21,576.5 -541.76,816.87l-297.64 189.67 -789.63 272.28 -104.22 19.72c-230.98,0 -458.2,-76.06 -682.6,-228.16l-18.78 0c-100.46,81.69 -187.79,123.01 -261.03,123.01l-88.26 0c-174.64,-48.83 -261.02,-132.39 -261.02,-249.76l0 -209.38 -107.98 0c0,157.74 -133.33,339.89 -400.93,544.57 -178.39,111.73 -429.09,168.07 -753.96,168.07 -247.87,-29.11 -504.2,-154.93 -769.91,-376.51 -303.27,-399.98 -454.44,-771.8 -454.44,-1114.5l0 -313.6c0,-298.58 69.48,-746.44 209.38,-1342.67 -139.9,-83.56 -209.38,-252.57 -209.38,-506.08l0 -186.85c0,-214.07 151.17,-438.48 454.44,-671.33 183.09,-98.59 317.35,-148.35 403.74,-148.35l156.8 0c257.27,-278.86 496.7,-417.83 718.28,-417.83l245.05 0c107.98,0 236.61,61.98 384.96,186.86l263.84 148.35c132.39,-210.32 300.45,-343.64 506.08,-399.04 140.83,-56.34 287.31,-84.51 437.54,-84.51l368.06 41.32c163.38,-97.65 279.79,-146.47 349.27,-146.47zm-1504.16 819.68c117.36,255.39 176.52,632.84 176.52,1133.29 -59.16,644.1 -182.15,966.16 -369,966.16l-52.58 0c-82.62,-49.77 -123.94,-120.19 -123.94,-212.2l105.16 -798.1 -16.89 -18.78 0 -22.53 16.89 -21.6c-34.74,-683.54 -174.64,-1089.15 -418.75,-1215.91l-352.09 -85.43 -68.54 0c-319.24,0 -698.56,483.54 -1138.92,1449.7 -127.7,455.38 -192.48,812.18 -192.48,1070.38 0,671.33 117.36,1202.77 352.09,1595.23 172.76,223.47 411.25,336.14 715.46,336.14 348.34,0 576.5,-133.33 684.48,-399.04l16.9 -85.45c-338.95,-232.86 -508.9,-547.39 -508.9,-943.62l0 -189.66c25.35,-571.81 136.15,-858.19 332.38,-858.19l52.58 0 88.26 145.54c-139.9,295.76 -209.38,582.13 -209.38,861 28.17,258.2 126.75,482.6 297.64,671.33 169.94,84.5 327.68,126.75 473.22,126.75 160.56,0 353.98,-111.73 577.44,-336.14 117.36,-234.73 175.58,-409.37 175.58,-524.86l0 -294.82 -159.62 -775.55 -15.97 -62.9c27.24,-84.51 68.54,-126.76 123.94,-126.76 111.73,0 309.84,223.47 593.4,671.33 174.64,238.49 261.96,405.62 261.96,503.27 -24.41,84.5 -46.95,126.75 -68.54,126.75l-16.89 -19.72 -88.27 41.32c-29.11,0 -105.16,-84.51 -228.15,-252.58l-16.9 0 16.9 21.6 0 21.6c-69.48,387.78 -180.28,694.81 -332.38,922.03 -97.65,126.75 -161.49,189.67 -193.42,189.67 40.38,150.23 326.75,241.31 859.11,272.29l51.64 0c53.53,0 233.79,-223.47 541.76,-671.33 176.52,-373.69 264.79,-772.73 264.79,-1196.19 0,-524.86 -199.05,-1175.53 -597.16,-1952.97 -253.52,-275.1 -486.37,-428.15 -698.56,-460.07l-264.79 0c-177.46,0 -363.36,118.3 -557.71,354.92l-88.27 44.13zm-2170.8 2497.54l33.8 0 87.32 123.94 0 272.29c110.8,491.99 232.86,737.06 369.01,737.06l15.95 19.72 0 62.9c-52.58,112.67 -116.43,168.07 -192.48,168.07l-15.97 0c-257.26,-232.86 -384.96,-554.9 -384.96,-965.22l15.97 -357.73 71.35 -61.04zm682.6 1215.91l35.68 0 52.58 63.85 0 62.9c-62.9,126.76 -173.7,189.67 -333.32,189.67l-51.64 -85.45c98.59,-153.98 198.12,-230.97 296.71,-230.97z"/>
   <path id="1" class="fil1" d="M6146.16 375.67c255.39,0 452.56,91.08 591.52,272.29l21.6 0c317.36,-155.86 564.3,-233.79 740.81,-233.79l62.91 19.72 170.88 -19.72 0 19.72 62.91 -19.72c282.61,0 599.97,161.49 952.07,484.49 254.44,273.23 382.14,584.01 382.14,932.35l21.6 0c80.74,0 151.17,123 212.2,369l0 95.77c0,80.75 -35.69,184.97 -107.04,310.79 381.2,869.45 571.81,1568.01 571.81,2096.62 0,125.82 -105.16,301.39 -316.42,524.86 -175.58,192.48 -380.27,289.19 -613.12,289.19l-107.03 0c-449.75,0 -760.54,-83.57 -933.3,-250.69 -302.33,246 -590.58,369 -865.68,369l-129.57 0c-590.59,0 -1042.21,-232.86 -1353.94,-698.56 -111.73,-170.89 -167.12,-371.82 -167.12,-602.79l-22.53 -95.77 22.53 -19.72 0 -18.78 -22.53 -19.72c15.02,-258.2 106.09,-575.56 272.28,-952.07l44.14 -153.98c-129.57,0 -242.24,-103.28 -335.2,-310.79l-25.35 -214.07 0 -38.5c0,-330.5 85.45,-563.36 256.33,-698.56l0 -115.49c0,-151.17 48.83,-279.8 145.54,-387.77 -111.73,0 -209.38,-143.66 -293.89,-430.04 100.46,-309.84 269.47,-464.77 506.08,-464.77l255.39 -38.5zm41.31 1513.55l19.72 18.79 0 19.71 -168.07 989.63 -316.42 990.56c0,687.3 148.35,1108.87 445.99,1262.86 248.82,115.48 488.24,172.76 717.34,172.76l22.53 -18.79 18.78 0 66.67 18.79c393.4,-60.09 590.58,-157.75 590.58,-291.08 51.64,0 101.4,-109.85 149.28,-330.5 0,-481.67 -149.28,-870.39 -445.99,-1163.32 9.4,-76.99 30.99,-115.49 65.73,-115.49l-21.6 -19.72 0 -57.27c0,-47.88 239.42,-93.89 718.27,-138.02l62.91 0c109.85,0 180.27,32.87 212.2,96.72l0 118.3c41.31,0 62.9,31.92 62.9,95.77l-635.65 96.71c213.13,328.63 319.23,645.99 319.23,952.07l0 57.27 -62.9 292.01c0,107.98 261.02,185.91 784,233.79 366.18,-86.38 549.26,-222.53 549.26,-407.49 42.25,-84.51 63.85,-187.79 63.85,-310.79l0 -38.5c0,-236.61 -183.09,-832.83 -550.21,-1787.71l-126.75 -1124.84c-19.72,0 -48.82,-104.22 -85.45,-310.79 -166.19,-233.79 -315.48,-350.22 -445.04,-350.22 -117.36,-76.98 -251.63,-115.48 -401.86,-115.48 -500.45,0 -980.24,168.07 -1438.44,503.26 -113.61,261.02 -170.89,480.73 -170.89,661zm1482.57 98.59c99.53,16.9 148.35,42.25 148.35,76.99l-21.6 58.21 21.6 115.49 -125.82 118.3 211.26 288.26 0 79.8c0,26.29 -49.77,45.07 -151.17,58.22l-18.79 -19.72 -22.53 0 -18.78 19.72 -22.53 0c-46.01,-5.64 -109.86,-51.64 -192.49,-138.02 -91.08,78.87 -169.01,118.3 -230.97,118.3l-107.04 -95.77 0 -22.53 214.08 -288.26 -128.64 -195.3c14.08,-103.28 35.68,-153.98 62.9,-153.98l126.76 0 107.03 95.77c34.74,-56.34 84.51,-94.83 148.36,-115.49zm-1652.52 1785.84l65.72 57.28 0 173.7c0,287.31 76.99,559.6 230.98,816.86l0 18.78c0,34.74 -76.99,61.04 -230.98,76.99 -141.77,-198.12 -212.2,-385.9 -212.2,-563.36l0 -58.21c1.88,-300.46 50.71,-475.1 146.47,-522.05zm382.14 1143.61l44.14 58.22 0 76.98 -107.98 79.81 -84.51 0 -44.13 -41.32 21.6 -58.21 -41.32 -38.5c0,-38.5 70.43,-63.85 212.2,-76.99z"/>
   <path id="2" class="fil1" d="M10869.89 395.39l11.27 8.45 10.32 0 99.53 -8.45 32.87 0 11.27 8.45 10.32 -8.45 22.53 0 11.27 8.45 32.86 -8.45 10.33 8.45 11.26 0 11.27 -8.45 11.26 0 98.59 18.78 11.27 -10.32c146.47,8.45 219.71,18.78 219.71,30.05l11.26 -11.27c386.83,49.77 632.84,98.59 737.06,145.54 425.33,134.27 638.48,426.27 638.48,875.08l0 153.98c-64.79,340.83 -130.52,556.79 -198.12,646.92 -20.66,10.33 -68.54,87.33 -143.65,230.98 49.76,0 123,134.27 220.65,403.74l10.32 66.66c0,196.23 -46.95,366.19 -142.72,511.71l0 7.51c146.47,84.51 220.65,165.25 220.65,242.24 14.08,0 21.6,47.88 21.6,143.65l0 57.27 11.27 38.5 -66.67 280.74 11.27 46.95 -11.27 10.32 0 8.45 11.27 30.05c0,18.78 -11.27,28.17 -32.87,28.17l0 48.82 11.27 -10.33 21.6 0 0 30.05 11.26 38.5 -11.26 38.5c29.1,0 44.13,6.58 44.13,18.78l-11.27 8.45 0 11.27 -32.86 -11.27 -11.27 0 0 11.27c30.05,0 44.13,13.14 44.13,38.5l32.87 0c-6.58,44.13 -17.84,65.72 -32.87,65.72l11.27 11.27 0 8.45c0,13.14 -11.27,18.78 -32.87,18.78l11.27 49.76c-51.64,20.66 -77.93,46.01 -77.93,76.99l11.27 8.45 0 11.27c0,54.45 -36.62,108.91 -109.86,161.49 -51.64,90.14 -186.85,202.81 -407.49,338.95 -279.79,133.33 -474.15,200.94 -583.07,200.94 -169.95,30.98 -383.09,59.15 -637.53,85.43l-11.27 -8.45 -11.27 0 -121.12 18.79 0 -10.33c-32.86,14.09 -80.74,21.6 -142.72,21.6l-44.13 0c-271.34,0 -494.81,-61.03 -671.33,-184.02 -165.25,-72.3 -271.34,-154.93 -319.23,-250.69 -65.72,-140.84 -98.59,-250.69 -98.59,-327.69l21.6 -65.72 -10.32 -38.5 87.32 -384.96 0 -68.53 11.26 -8.45c-32.86,-188.73 -94.83,-336.14 -186.85,-443.18 -61.97,-87.32 -128.63,-242.23 -198.12,-461.95l11.27 0 -11.27 -11.27 0 -95.77c0,-75.11 36.62,-171.82 109.86,-289.19 75.11,-167.12 123,-256.33 142.72,-269.47l11.26 -8.45 0 -10.32c-146.46,-119.25 -219.7,-261.02 -219.7,-424.4l-32.87 -181.21 10.32 -11.26 -10.32 -46.95 0 -95.77c14.08,-172.76 44.13,-310.79 87.32,-415.01l76.99 -153.99c-94.83,-99.53 -142.72,-201.86 -142.72,-308.9l0 -38.5c27.23,-133.33 101.4,-258.2 219.71,-373.69 130.51,-102.35 284.49,-153.99 462.89,-153.99 117.36,15.97 175.57,42.25 175.57,76.99l32.87 0c201.86,-115.48 378.38,-173.7 528.62,-173.7l76.98 -18.78zm-1111.68 1124.83l11.26 11.27 0 8.45 -44.13 134.27 11.27 30.05c-22.53,0 -32.87,58.21 -32.87,173.7l-11.26 0 11.26 8.45 -44.13 164.31 0 46.95c3.76,107.03 76.99,276.97 219.71,511.71 117.36,107.98 267.6,162.43 451.62,162.43l32.87 0 208.44 -8.45 33.8 8.45 32.86 -8.45 10.32 8.45 55.4 -8.45 55.4 0c723.91,0 1179.29,-108.91 1364.26,-326.74 205.62,-136.15 307.97,-242.24 307.97,-319.24 73.24,-134.27 109.85,-220.65 109.85,-259.15l0 -202.8c0,-192.49 -58.21,-369.01 -175.57,-528.62 -172.76,-140.84 -341.77,-253.52 -506.08,-338.01l0 -19.72 21.6 0 263.84 135.2 0 -19.71c-192.49,-121.12 -353.98,-184.97 -483.55,-192.49l-33.8 11.27 -87.32 -19.72 -363.37 0c-388.71,26.29 -634.71,64.79 -737.06,115.49 -178.39,86.38 -276.98,140.83 -297.63,162.43 -76.99,66.67 -168.07,200.94 -275.11,404.68l-109.85 153.98zm538.94 -373.69l44.13 57.27 0 38.5c-56.34,46.01 -89.19,112.67 -98.58,200.94l-44.14 49.76 11.27 27.23c-111.73,101.41 -170.88,197.18 -176.52,289.19l11.27 10.32 -11.27 46.95 0 49.77 11.27 38.5 -11.27 38.5 0 8.44c22.54,0 32.87,6.58 32.87,18.79l0 19.71 -21.6 0 0 18.79c29.11,3.76 44.13,14.08 44.13,30.98l-32.86 27.23 121.12 172.76c-31.93,49.76 -68.54,78.87 -110.8,88.26l-32.87 38.5 11.27 8.45 32.87 11.27 0 7.51 109.85 -57.28 22.53 0c40.37,0 73.24,25.35 98.59,76.99 0,63.85 -47.88,132.39 -142.72,203.75 -139.9,-15.02 -209.38,-44.13 -209.38,-88.26 5.63,-29.11 30.98,-63.85 76.98,-104.22 0,-16.9 -47.88,-33.8 -142.72,-49.77l-32.86 11.27 0 -11.27c-44.13,-78.87 -88.27,-248.81 -132.39,-508.89 0,-138.02 102.35,-334.26 307.97,-588.71 113.62,-121.12 201.87,-181.21 263.84,-181.21zm1144.55 384.96l0 27.23 -21.6 0 -22.53 -18.78 11.27 -8.45 32.86 0zm-230.97 1462.84l-11.27 -10.32 -10.32 0 -440.36 68.54 -32.86 -11.27 -99.53 11.27 -54.46 0 -11.26 -11.27 -11.27 11.27 -164.31 -11.27 -44.13 0 -44.13 -8.45 -11.27 8.45 -11.26 0c-168.07,-19.71 -296.71,-54.45 -384.96,-104.22l-32.87 -30.05 -11.26 0c0,15.97 -44.14,64.79 -131.46,145.54 -15.02,132.38 -30.05,205.62 -44.13,219.71l11.27 11.26 -11.27 65.72 0 76.99 -11.26 11.27 0 8.45c15.02,0 29.1,51.64 44.13,153.98 21.6,53.53 150.22,200.94 384.96,443.17 44.13,89.2 65.72,163.38 65.72,222.53l0 8.45c0,56.34 -21.6,130.51 -65.72,222.52l11.26 8.45 0 10.32c-88.26,195.31 -132.38,342.72 -132.38,443.18 0,113.61 32.86,186.85 99.53,220.65 271.34,76.98 583.07,115.48 935.16,115.48l76.99 0 44.13 10.33 10.33 -10.33 11.26 0 11.27 10.33 88.26 -18.79 10.33 8.45 11.26 0 528.62 -76.98c0,-11.27 58.22,-33.8 175.58,-66.67 286.37,-123 461.95,-261.02 528.62,-415.01l0 -8.45 -11.27 -49.76 21.6 -18.78 0 -38.5c-203.75,-271.35 -321.11,-563.36 -352.09,-875.08 44.13,-146.47 107.04,-293.89 186.85,-442.23l76.99 -338.95c0,-94.83 -21.6,-191.55 -65.72,-288.26l-21.6 0c-153.99,102.35 -261.03,153.99 -319.24,153.99 0,27.23 -263.84,82.62 -792.45,164.3zm1573.64 1637.49l-11.26 76.99 0 7.51 11.26 0c5.63,-38.5 13.14,-57.27 21.6,-57.27l-10.32 -27.24 -11.27 0z"/>
   <path id="3" class="fil1" d="M15451.86 398.2c738.93,0 1216.85,275.11 1433.74,825.32 38.5,133.33 63.85,328.63 76.99,585.89 0,307.97 -95.78,619.69 -286.38,935.17l0 13.14c138.97,99.53 209.39,205.62 209.39,319.24 0,123 -82.62,238.49 -247.87,346.45 90.13,155.86 135.2,373.7 135.2,652.56l15.95 46.95c0,692.93 -305.15,1131.41 -916.39,1314.49 -208.44,73.24 -623.45,141.78 -1243.14,206.57 -931.42,0 -1581.15,-206.57 -1950.15,-619.69 -126.75,-243.18 -189.67,-465.71 -189.67,-664.76 0,-328.63 107.98,-597.16 324.87,-806.55l0 -49.76c-101.4,-123 -151.17,-323 -151.17,-601.85l0 -63.85 15.97 -62.9 -15.97 -62.91 0 -110.79c0,-133.33 69.48,-339.9 208.45,-618.75l-18.79 0c-103.28,-60.09 -153.98,-118.3 -153.98,-172.76l0 -96.71c0,-111.73 121.12,-264.78 362.42,-459.14 -36.61,-67.61 -54.45,-131.46 -54.45,-189.67 0,-174.64 190.6,-353.98 571.81,-539.89 115.48,-41.31 268.53,-73.23 459.14,-92.95 151.17,0 335.19,46.95 553.02,139.9 405.62,-115.48 692.93,-172.76 861,-172.76zm-2426.19 2376.43l0 189.67c0,334.26 171.83,567.1 514.53,698.56l212.2 30.05c204.68,0 428.15,-73.24 668.51,-219.71l95.77 0c69.48,0 120.19,30.98 151.17,93.9l0 62.9c-181.21,328.63 -282.61,534.25 -305.15,618.75 -100.47,42.25 -183.1,63.85 -247.88,63.85 0,-16.9 -38.49,-37.56 -115.48,-63.85l0 -62.91c0,-53.52 38.5,-153.98 115.48,-302.33l-18.78 0c-138.96,32.86 -273.23,48.82 -401.86,48.82 -184.96,0 -396.22,-58.22 -632.84,-175.58l-15.95 0c-115.49,142.72 -173.7,301.4 -173.7,476.04l0 79.81c0,417.82 134.27,681.66 401.85,791.51 296.71,191.55 755.84,286.37 1375.53,286.37 244.12,0 606.55,-58.21 1089.15,-175.57 445.99,-155.86 668.51,-462.89 668.51,-919.21 0,-513.6 -82.62,-830.02 -247.87,-949.25 0,-23.48 -38.5,-65.72 -115.49,-125.82 -296.7,104.22 -551.15,156.8 -761.46,156.8l-19.72 0c-307.97,0 -588.71,-84.51 -841.28,-253.52 -242.24,-227.22 -363.37,-444.11 -363.37,-648.79 0,-413.13 235.68,-708.89 707.01,-889.17l115.49 -15.95c165.25,7.51 247.87,33.8 247.87,79.8l0 15.97c-30.05,40.37 -151.17,104.22 -363.37,189.67 -229.1,199.99 -343.64,400.92 -343.64,602.79 0,234.73 153.04,430.03 459.14,585.89 135.2,53.52 293.89,79.8 476.04,79.8l57.27 0c509.84,-111.72 765.23,-222.52 765.23,-332.37 254.44,-255.39 382.14,-561.48 382.14,-919.21l0 -95.78 18.78 -16.89 -18.78 -14.09 0 -15.95 18.78 -126.76c-38.5,-267.59 -107.98,-474.15 -208.44,-618.74 -229.1,-242.24 -503.26,-363.37 -822.5,-363.37l-192.48 0c-409.38,42.24 -887.29,258.2 -1433.74,648.79 -597.16,503.27 -896.68,1004.65 -896.68,1505.11zm3037.43 1174.6c0,19.71 18.78,30.05 57.27,30.05l19.72 16.9 0 15.95c-24.42,93.9 -74.17,140.84 -151.17,140.84l18.78 15.97 0 16.89 112.67 -32.86c38.5,38.5 58.22,76.05 58.22,112.67l0 15.97c0,382.14 -203.75,682.59 -611.24,902.31 0,20.66 -31.93,30.98 -95.78,30.98 -76.98,-24.42 -115.48,-45.07 -115.48,-63.85l0 -30.05c221.59,-161.49 381.2,-356.79 478.85,-585.89l18.79 -79.8 -18.79 -206.57c29.11,0 47.88,-26.29 57.28,-79.8l-19.72 0c-58.21,-19.72 -90.14,-41.32 -95.77,-62.91l0 -30.05c63.85,-84.5 159.62,-126.75 286.37,-126.75z"/>
   <path class="fil2" d="M15573.03 180.26c738.95,0 1216.86,275.11 1433.76,825.33 38.5,133.33 63.85,328.63 76.99,585.9 0,307.97 -95.78,619.7 -286.38,935.18l0 13.14c138.97,99.53 209.39,205.63 209.39,319.24 0,123.01 -82.62,238.49 -247.88,346.47 90.14,155.86 135.21,373.69 135.21,652.56l15.95 46.95c0,692.94 -305.15,1131.43 -916.4,1314.51 -208.45,73.24 -623.46,141.78 -1243.16,206.57 -931.43,0 -1581.17,-206.57 -1950.18,-619.7 -126.75,-243.18 -189.67,-465.71 -189.67,-664.77 0,-328.63 107.98,-597.17 324.88,-806.55l0 -49.77c-101.41,-123.01 -151.17,-323 -151.17,-601.86l0 -63.85 15.95 -62.9 -15.95 -62.91 0 -110.79c0,-133.33 69.48,-339.9 208.44,-618.76l-18.78 0c-103.28,-60.09 -153.99,-118.31 -153.99,-172.76l0 -96.72c0,-111.73 121.12,-264.78 362.43,-459.14 -36.62,-67.61 -54.46,-131.46 -54.46,-189.67 0,-174.65 190.61,-353.98 571.82,-539.9 115.49,-41.31 268.53,-73.24 459.15,-92.95 151.17,0 335.19,46.95 553.03,139.9 405.62,-115.49 692.94,-172.76 861.01,-172.76z"/>
   <path class="fil2" d="M10991 177.44l11.27 8.45 10.32 0 99.53 -8.45 32.87 0 11.27 8.45 10.32 -8.45 22.53 0 11.27 8.45 32.87 -8.45 10.32 8.45 11.27 0 11.26 -8.45 11.27 0 98.59 18.79 11.26 -10.33c146.47,8.45 219.71,18.79 219.71,30.05l11.27 -11.26c386.85,49.76 632.85,98.59 737.07,145.54 425.34,134.27 638.48,426.28 638.48,875.09l0 153.99c-64.79,340.83 -130.51,556.79 -198.12,646.93 -20.65,10.32 -68.54,87.32 -143.65,230.97 49.77,0 123.01,134.28 220.65,403.75l10.33 66.67c0,196.23 -46.95,366.19 -142.73,511.71l0 7.51c146.48,84.51 220.66,165.25 220.66,242.24 14.08,0 21.6,47.88 21.6,143.66l0 57.27 11.26 38.5 -66.66 280.74 11.26 46.95 -11.26 10.32 0 8.45 11.26 30.05c0,18.79 -11.26,28.17 -32.86,28.17l0 48.82 11.26 -10.32 21.6 0 0 30.05 11.27 38.5 -11.27 38.5c29.11,0 44.14,6.57 44.14,18.78l-11.27 8.45 0 11.27 -32.87 -11.27 -11.26 0 0 11.27c30.05,0 44.13,13.14 44.13,38.5l32.87 0c-6.58,44.13 -17.84,65.72 -32.87,65.72l11.27 11.26 0 8.45c0,13.14 -11.27,18.79 -32.87,18.79l11.27 49.76c-51.64,20.66 -77.93,46.01 -77.93,76.99l11.26 8.45 0 11.27c0,54.45 -36.61,108.91 -109.85,161.49 -51.64,90.14 -186.86,202.81 -407.5,338.96 -279.8,133.33 -474.16,200.94 -583.08,200.94 -169.95,30.98 -383.09,59.15 -637.54,85.43l-11.27 -8.45 -11.26 0 -121.13 18.79 0 -10.33c-32.86,14.09 -80.74,21.6 -142.72,21.6l-44.13 0c-271.35,0 -494.82,-61.03 -671.34,-184.02 -165.25,-72.3 -271.35,-154.93 -319.24,-250.69 -65.72,-140.84 -98.59,-250.71 -98.59,-327.7l21.6 -65.72 -10.32 -38.5 87.32 -384.96 0 -68.54 11.27 -8.45c-32.87,-188.73 -94.83,-336.14 -186.86,-443.18 -61.97,-87.32 -128.64,-242.24 -198.12,-461.96l11.27 0 -11.27 -11.27 0 -95.77c0,-75.11 36.62,-171.83 109.86,-289.19 75.11,-167.13 123,-256.34 142.72,-269.48l11.27 -8.45 0 -10.32c-146.48,-119.25 -219.72,-261.03 -219.72,-424.41l-32.86 -181.21 10.32 -11.26 -10.32 -46.95 0 -95.77c14.08,-172.77 44.13,-310.8 87.32,-415.02l76.99 -153.99c-94.83,-99.53 -142.72,-201.86 -142.72,-308.9l0 -38.5c27.23,-133.33 101.4,-258.21 219.71,-373.7 130.51,-102.35 284.5,-153.99 462.89,-153.99 117.38,15.97 175.58,42.25 175.58,76.99l32.87 0c201.87,-115.49 378.39,-173.7 528.62,-173.7l76.99 -18.79z"/>
   <path class="fil2" d="M6267.21 157.73c255.39,0 452.57,91.08 591.53,272.29l21.6 0c317.36,-155.86 564.3,-233.79 740.82,-233.79l62.91 19.71 170.89 -19.71 0 19.71 62.9 -19.71c282.62,0 599.99,161.49 952.08,484.49 254.45,273.24 382.15,584.02 382.15,932.37l21.6 0c80.75,0 151.17,123 212.2,369l0 95.78c0,80.74 -35.68,184.97 -107.03,310.79 381.2,869.46 571.81,1568.03 571.81,2096.65 0,125.82 -105.16,301.4 -316.42,524.87 -175.58,192.48 -380.27,289.19 -613.13,289.19l-107.03 0c-449.76,0 -760.55,-83.57 -933.31,-250.71 -302.34,246.01 -590.59,369.01 -865.7,369.01l-129.57 0c-590.59,0 -1042.22,-232.86 -1353.96,-698.57 -111.72,-170.89 -167.12,-371.82 -167.12,-602.8l-22.54 -95.77 22.54 -19.72 0 -18.78 -22.54 -19.72c15.03,-258.21 106.1,-575.56 272.3,-952.08l44.13 -153.99c-129.57,0 -242.24,-103.28 -335.2,-310.79l-25.35 -214.07 0 -38.5c0,-330.51 85.45,-563.37 256.34,-698.58l0 -115.48c0,-151.17 48.82,-279.8 145.54,-387.78 -111.73,0 -209.39,-143.66 -293.9,-430.04 100.47,-309.85 269.48,-464.78 506.09,-464.78l255.39 -38.5z"/>
   <path class="fil2" d="M4531.11 122.05l36.62 0c261.97,0 430.97,153.98 506.08,461.96l18.79 231.92 0 81.69c244.12,157.74 366.19,325.81 366.19,504.21l0 84.5 -32.87 230.98c80.75,288.26 144.6,582.14 192.49,880.72l0 104.23 -52.58 630.03c138.96,155.86 209.38,380.27 209.38,674.15 0,304.22 -181.21,576.51 -541.77,816.88l-297.64 189.67 -789.64 272.29 -104.22 19.72c-230.98,0 -458.21,-76.06 -682.61,-228.16l-18.78 0c-100.46,81.69 -187.79,123.01 -261.03,123.01l-88.26 0c-174.65,-48.83 -261.03,-132.39 -261.03,-249.76l0 -209.39 -107.98 0c0,157.75 -133.33,339.9 -400.93,544.58 -178.39,111.73 -429.09,168.07 -753.97,168.07 -247.87,-29.1 -504.21,-154.93 -769.93,-376.51 -303.27,-399.99 -454.44,-771.81 -454.44,-1114.52l0 -313.61c0,-298.58 69.48,-746.45 209.38,-1342.68 -139.9,-83.57 -209.38,-252.58 -209.38,-506.09l0 -186.85c0,-214.08 151.17,-438.49 454.44,-671.34 183.1,-98.59 317.36,-148.36 403.75,-148.36l156.8 0c257.27,-278.86 496.71,-417.83 718.29,-417.83l245.06 0c107.98,0 236.61,61.98 384.97,186.86l263.84 148.35c132.39,-210.32 300.46,-343.64 506.08,-399.04 140.84,-56.34 287.32,-84.51 437.55,-84.51l368.06 41.32c163.38,-97.65 279.8,-146.47 349.28,-146.47z"/>
   <path class="fil3" d="M13146.81 2556.72l0 189.67c0,334.27 171.83,567.12 514.53,698.57l212.2 30.05c204.69,0 428.16,-73.24 668.53,-219.71l95.77 0c69.48,0 120.19,30.98 151.17,93.9l0 62.9c-181.21,328.64 -282.62,534.27 -305.16,618.76 -100.46,42.25 -183.09,63.85 -247.87,63.85 0,-16.9 -38.5,-37.56 -115.49,-63.85l0 -62.9c0,-53.53 38.5,-153.99 115.49,-302.35l-18.79 0c-138.96,32.87 -273.23,48.83 -401.86,48.83 -184.97,0 -396.23,-58.22 -632.85,-175.58l-15.97 0c-115.49,142.72 -173.7,301.4 -173.7,476.04l0 79.81c0,417.83 134.27,681.67 401.86,791.53 296.71,191.54 755.85,286.37 1375.55,286.37 244.12,0 606.55,-58.21 1089.16,-175.58 446,-155.86 668.53,-462.89 668.53,-919.22 0,-513.6 -82.64,-830.03 -247.88,-949.26 0,-23.48 -38.5,-65.73 -115.49,-125.83 -296.71,104.23 -551.16,156.81 -761.47,156.81l-19.72 0c-307.98,0 -588.72,-84.51 -841.29,-253.52 -242.25,-227.23 -363.38,-444.12 -363.38,-648.81 0,-413.13 235.68,-708.89 707.02,-889.17l115.49 -15.97c165.26,7.51 247.88,33.8 247.88,79.81l0 15.95c-30.05,40.38 -151.17,104.23 -363.38,189.67 -229.1,200 -343.64,400.94 -343.64,602.8 0,234.74 153.04,430.04 459.14,585.9 135.21,53.53 293.89,79.81 476.05,79.81l57.27 0c509.84,-111.73 765.24,-222.53 765.24,-332.38 254.45,-255.39 382.14,-561.49 382.14,-919.23l0 -95.77 18.79 -16.9 -18.79 -14.08 0 -15.97 18.79 -126.75c-38.5,-267.6 -107.98,-474.16 -208.45,-618.76 -229.1,-242.24 -503.26,-363.37 -822.51,-363.37l-192.48 0c-409.38,42.25 -887.3,258.21 -1433.76,648.8 -597.17,503.27 -896.69,1004.67 -896.69,1505.13z"/>
   <path class="fil4" d="M12905.51 4413.94l-11.27 76.99 0 7.51 11.27 0c5.63,-38.5 13.14,-57.28 21.6,-57.28l-10.33 -27.23 -11.26 0z"/>
   <path class="fil5" d="M11331.84 2776.43l-11.26 -10.33 -10.33 0 -440.36 68.54 -32.86 -11.26 -99.53 11.26 -54.46 0 -11.27 -11.26 -11.26 11.26 -164.32 -11.26 -44.13 0 -44.13 -8.45 -11.27 8.45 -11.26 0c-168.07,-19.72 -296.71,-54.46 -384.97,-104.22l-32.86 -30.05 -11.27 0c0,15.95 -44.13,64.79 -131.45,145.53 -15.03,132.39 -30.05,205.63 -44.14,219.71l11.27 11.27 -11.27 65.72 0 76.99 -11.26 11.27 0 8.45c15.02,0 29.11,51.64 44.13,153.99 21.6,53.52 150.23,200.93 384.96,443.17 44.14,89.2 65.73,163.38 65.73,222.53l0 8.45c0,56.34 -21.6,130.51 -65.73,222.53l11.27 8.45 0 10.32c-88.26,195.3 -132.39,342.72 -132.39,443.18 0,113.61 32.87,186.85 99.53,220.65 271.35,76.99 583.09,115.49 935.18,115.49l76.99 0 44.14 10.32 10.32 -10.32 11.27 0 11.26 10.32 88.27 -18.78 10.32 8.45 11.27 0 528.62 -76.99c0,-11.27 58.22,-33.8 175.58,-66.66 286.38,-123.01 461.96,-261.03 528.63,-415.02l0 -8.45 -11.27 -49.76 21.6 -18.79 0 -38.5c-203.75,-271.35 -321.11,-563.36 -352.09,-875.09 44.13,-146.47 107.03,-293.89 186.85,-442.23l76.99 -338.96c0,-94.83 -21.6,-191.55 -65.72,-288.26l-21.6 0c-153.99,102.35 -261.03,153.99 -319.25,153.99 0,27.23 -263.84,82.62 -792.47,164.31z"/>
   <polygon class="fil6" points="11562.82,1313.56 11562.82,1340.79 11541.22,1340.79 11518.69,1322.01 11529.95,1313.56 "/>
   <path class="fil7" d="M9879.3 1302.3l11.27 11.26 0 8.45 -44.13 134.27 11.26 30.05c-22.53,0 -32.86,58.22 -32.86,173.71l-11.27 0 11.27 8.45 -44.14 164.31 0 46.95c3.76,107.04 76.99,276.98 219.71,511.72 117.38,107.98 267.61,162.43 451.63,162.43l32.87 0 208.44 -8.45 33.8 8.45 32.87 -8.45 10.32 8.45 55.4 -8.45 55.4 0c723.92,0 1179.31,-108.91 1364.28,-326.75 205.62,-136.14 307.97,-242.24 307.97,-319.24 73.24,-134.27 109.86,-220.65 109.86,-259.15l0 -202.81c0,-192.49 -58.22,-369.01 -175.58,-528.63 -172.76,-140.83 -341.77,-253.52 -506.09,-338.01l0 -19.72 21.6 0 263.85 135.21 0 -19.72c-192.49,-121.12 -353.99,-184.97 -483.56,-192.49l-33.79 11.27 -87.33 -19.72 -363.37 0c-388.72,26.3 -634.72,64.79 -737.07,115.49 -178.4,86.38 -276.99,140.84 -297.64,162.44 -76.99,66.66 -168.07,200.94 -275.11,404.68l-109.86 153.99z"/>
   <path class="fil8" d="M6520.72 4699.37l44.13 58.22 0 76.99 -107.98 79.8 -84.51 0 -44.13 -41.31 21.6 -58.22 -41.31 -38.5c0,-38.5 70.42,-63.85 212.2,-76.99z"/>
   <path class="fil9" d="M6138.57 3555.75l65.72 57.27 0 173.7c0,287.32 76.99,559.61 230.98,816.88l0 18.78c0,34.75 -76.99,61.04 -230.98,76.99 -141.77,-198.12 -212.2,-385.9 -212.2,-563.36l0 -58.22c1.88,-300.46 50.71,-475.1 146.47,-522.05z"/>
   <path class="fil10" d="M6308.52 1671.29l19.71 18.79 0 19.71 -168.07 989.64 -316.42 990.58c0,687.31 148.35,1108.88 445.99,1262.87 248.82,115.49 488.26,172.76 717.35,172.76l22.53 -18.78 18.78 0 66.67 18.78c393.41,-60.09 590.59,-157.74 590.59,-291.07 51.64,0 101.41,-109.86 149.29,-330.51 0,-481.68 -149.29,-870.4 -446,-1163.35 9.39,-76.99 30.98,-115.49 65.72,-115.49l-21.6 -19.71 0 -57.28c0,-47.88 239.43,-93.9 718.29,-138.02l62.91 0c109.85,0 180.28,32.87 212.2,96.72l0 118.3c41.32,0 62.91,31.93 62.91,95.77l-635.67 96.72c213.14,328.63 319.24,645.99 319.24,952.08l0 57.27 -62.9 292.01c0,107.98 261.02,185.91 784.01,233.79 366.19,-86.38 549.27,-222.52 549.27,-407.49 42.25,-84.51 63.85,-187.79 63.85,-310.8l0 -38.49c0,-236.61 -183.1,-832.85 -550.22,-1787.75l-126.75 -1124.85c-19.72,0 -48.83,-104.22 -85.45,-310.79 -166.2,-233.79 -315.48,-350.22 -445.05,-350.22 -117.38,-76.99 -251.64,-115.49 -401.87,-115.49 -500.45,0 -980.25,168.07 -1438.46,503.27 -113.61,261.02 -170.88,480.73 -170.88,661.01z"/>
   <path class="fil11" d="M3026.93 941.74c117.36,255.39 176.52,632.85 176.52,1133.3 -59.16,644.12 -182.15,966.17 -369.01,966.17l-52.58 0c-82.62,-49.76 -123.93,-120.19 -123.93,-212.2l105.16 -798.1 -16.9 -18.79 0 -22.53 16.9 -21.6c-34.74,-683.55 -174.65,-1089.17 -418.76,-1215.92l-352.1 -85.45 -68.54 0c-319.24,0 -698.57,483.55 -1138.93,1449.73 -127.7,455.38 -192.49,812.18 -192.49,1070.39 0,671.34 117.36,1202.78 352.1,1595.27 172.76,223.46 411.25,336.14 715.47,336.14 348.35,0 576.51,-133.33 684.49,-399.05l16.9 -85.45c-338.96,-232.86 -508.91,-547.4 -508.91,-943.63l0 -189.67c25.35,-571.82 136.15,-858.19 332.39,-858.19l52.58 0 88.26 145.54c-139.9,295.76 -209.38,582.14 -209.38,861 28.16,258.21 126.75,482.61 297.64,671.34 169.94,84.51 327.69,126.76 473.23,126.76 160.56,0 353.98,-111.73 577.45,-336.14 117.36,-234.74 175.58,-409.38 175.58,-524.87l0 -294.83 -159.63 -775.56 -15.95 -62.9c27.23,-84.51 68.54,-126.76 123.94,-126.76 111.72,0 309.84,223.47 593.4,671.34 174.65,238.49 261.97,405.62 261.97,503.27 -24.42,84.51 -46.95,126.75 -68.54,126.75l-16.9 -19.71 -88.26 41.31c-29.11,0 -105.17,-84.5 -228.16,-252.57l-16.9 0 16.9 21.6 0 21.6c-69.48,387.78 -180.28,694.81 -332.38,922.04 -97.65,126.75 -161.5,189.67 -193.42,189.67 40.37,150.23 326.75,241.31 859.13,272.29l51.64 0c53.53,0 233.79,-223.47 541.77,-671.34 176.52,-373.7 264.78,-772.74 264.78,-1196.2 0,-524.87 -199.05,-1175.55 -597.16,-1953 -253.52,-275.11 -486.37,-428.15 -698.57,-460.08l-264.79 0c-177.46,0 -363.37,118.31 -557.73,354.93l-88.27 44.13z"/>
   <path class="fil12" d="M1538.71 4655.24l35.68 0 52.58 63.85 0 62.91c-62.9,126.75 -173.7,189.67 -333.32,189.67l-51.64 -85.45c98.59,-153.99 198.12,-230.98 296.71,-230.98z"/>
   <path class="fil12" d="M856.1 3439.32l33.8 0 87.32 123.94 0 272.29c110.8,492 232.86,737.07 369.01,737.07l15.97 19.72 0 62.9c-52.59,112.67 -116.43,168.07 -192.49,168.07l-15.97 0c-257.26,-232.86 -384.96,-554.92 -384.96,-965.23l15.97 -357.74 71.35 -61.03z"/>
   <path class="fil12" d="M16184.28 3731.33c0,19.71 18.78,30.05 57.27,30.05l19.72 16.89 0 15.97c-24.42,93.9 -74.17,140.84 -151.17,140.84l18.78 15.97 0 16.9 112.67 -32.87c38.5,38.5 58.22,76.06 58.22,112.67l0 15.97c0,382.14 -203.76,682.6 -611.25,902.32 0,20.66 -31.93,30.98 -95.77,30.98 -76.99,-24.41 -115.49,-45.06 -115.49,-63.84l0 -30.05c221.59,-161.5 381.2,-356.8 478.86,-585.9l18.78 -79.81 -18.78 -206.57c29.11,0 47.88,-26.29 57.27,-79.8l-19.71 0c-58.22,-19.72 -90.14,-41.32 -95.78,-62.91l0 -30.05c63.85,-84.51 159.62,-126.75 286.38,-126.75z"/>
   <path class="fil12" d="M10418.25 928.59l44.14 57.27 0 38.5c-56.34,46.01 -89.2,112.67 -98.59,200.94l-44.14 49.76 11.27 27.24c-111.73,101.4 -170.89,197.17 -176.52,289.19l11.27 10.32 -11.27 46.95 0 49.77 11.27 38.5 -11.27 38.5 0 8.44c22.53,0 32.87,6.58 32.87,18.79l0 19.71 -21.6 0 0 18.79c29.11,3.76 44.13,14.08 44.13,30.98l-32.87 27.23 121.12 172.76c-31.92,49.77 -68.53,78.88 -110.79,88.27l-32.87 38.5 11.27 8.45 32.86 11.26 0 7.51 109.86 -57.27 22.53 0c40.37,0 73.24,25.35 98.59,76.99 0,63.85 -47.88,132.38 -142.72,203.75 -139.91,-15.02 -209.39,-44.13 -209.39,-88.26 5.64,-29.11 30.98,-63.85 76.99,-104.23 0,-16.9 -47.88,-33.8 -142.72,-49.76l-32.87 11.26 0 -11.26c-44.13,-78.88 -88.26,-248.82 -132.38,-508.9 0,-138.02 102.34,-334.27 307.97,-588.72 113.62,-121.12 201.87,-181.21 263.84,-181.21z"/>
   <path class="fil12" d="M7791.11 1769.88c99.53,16.9 148.35,42.25 148.35,76.99l-21.6 58.22 21.6 115.48 -125.82 118.31 211.26 288.26 0 79.8c0,26.29 -49.76,45.07 -151.17,58.22l-18.78 -19.72 -22.54 0 -18.78 19.72 -22.53 0c-46.01,-5.63 -109.86,-51.64 -192.49,-138.02 -91.08,78.87 -169.01,118.3 -230.97,118.3l-107.04 -95.77 0 -22.53 214.07 -288.26 -128.63 -195.3c14.08,-103.28 35.68,-153.99 62.9,-153.99l126.76 0 107.03 95.77c34.74,-56.34 84.51,-94.83 148.36,-115.49z"/>
  </g>
 </g>
</svg>
