<?xml version="1.0" encoding="UTF-8"?>
<!DOCTYPE svg PUBLIC "-//W3C//DTD SVG 1.1//EN" "http://www.w3.org/Graphics/SVG/1.1/DTD/svg11.dtd">
<!-- Creator: CorelDRAW 2020 (64 Bit) -->
<svg xmlns="http://www.w3.org/2000/svg" xml:space="preserve" width="167.155mm" height="64.4091mm" version="1.1" style="shape-rendering:geometricPrecision; text-rendering:geometricPrecision; image-rendering:optimizeQuality; fill-rule:evenodd; clip-rule:evenodd"
viewBox="0 0 16958.26 6534.47"
 xmlns:xlink="http://www.w3.org/1999/xlink"
 xmlns:xodm="http://www.corel.com/coreldraw/odm/2003">
 <defs>
  <style type="text/css">
   <![CDATA[
    .fil0 {fill:black}
    .fil13 {fill:#2C80BE}
    .fil14 {fill:#53E346}
    .fil1 {fill:#FA47FE;fill-rule:nonzero}
    .fil2 {fill:white;fill-rule:nonzero}
    .fil12 {fill:white;fill-rule:nonzero}
    .fil10 {fill:url(#id1);fill-rule:nonzero}
    .fil5 {fill:url(#id2);fill-rule:nonzero}
    .fil11 {fill:url(#id3);fill-rule:nonzero}
    .fil9 {fill:url(#id4);fill-rule:nonzero}
    .fil6 {fill:url(#id5);fill-rule:nonzero}
    .fil3 {fill:url(#id6);fill-rule:nonzero}
    .fil4 {fill:url(#id7);fill-rule:nonzero}
    .fil8 {fill:url(#id8);fill-rule:nonzero}
    .fil7 {fill:url(#id9);fill-rule:nonzero}
   ]]>
  </style>
   <clipPath id="id0">
    <rect x="7917.66" y="5217.54" width="858.96" height="858.96"/>
   </clipPath>
  <linearGradient id="id1" gradientUnits="userSpaceOnUse" x1="7574.9" y1="5051.9" x2="7574.9" y2="499.71">
   <stop offset="0" style="stop-opacity:1; stop-color:#29F1B2"/>
   <stop offset="1" style="stop-opacity:1; stop-color:#00A9FF"/>
  </linearGradient>
  <linearGradient id="id2" gradientUnits="userSpaceOnUse" xlink:href="#id1" x1="11033.22" y1="5013.96" x2="11033.22" y2="2422.76">
  </linearGradient>
  <linearGradient id="id3" gradientUnits="userSpaceOnUse" xlink:href="#id1" x1="2870.94" y1="5044.51" x2="2870.94" y2="534.88">
  </linearGradient>
  <linearGradient id="id4" gradientUnits="userSpaceOnUse" x1="6124.29" y1="4631.76" x2="6124.29" y2="3504.59">
   <stop offset="0" style="stop-opacity:1; stop-color:#511A86"/>
   <stop offset="1" style="stop-opacity:1; stop-color:#18AABA"/>
  </linearGradient>
  <linearGradient id="id5" gradientUnits="userSpaceOnUse" xlink:href="#id4" x1="11374.7" y1="1321.5" x2="11374.7" y2="1294.66">
  </linearGradient>
  <linearGradient id="id6" gradientUnits="userSpaceOnUse" xlink:href="#id1" x1="14633.15" y1="5098.18" x2="14633.15" y2="396.99">
  </linearGradient>
  <linearGradient id="id7" gradientUnits="userSpaceOnUse" xlink:href="#id4" x1="12724.9" y1="4433.72" x2="12724.9" y2="4350.43">
  </linearGradient>
  <linearGradient id="id8" gradientUnits="userSpaceOnUse" xlink:href="#id4" x1="6344.07" y1="4843.68" x2="6344.07" y2="4631.76">
  </linearGradient>
  <linearGradient id="id9" gradientUnits="userSpaceOnUse" xlink:href="#id1" x1="11060.52" y1="2517.15" x2="11060.52" y2="458.99">
  </linearGradient>
 </defs>
 <g id="Camada_x0020_1">
  <metadata id="CorelCorpID_0Corel-Layer"/>
  <g id="_1864634336464">
   <path class="fil0" d="M158.91 1376.15c81.83,-221.02 276.76,-406.3 455.24,-543.35l7.69 -5.9 8.54 -4.61c123.84,-66.67 311.58,-160.58 454.9,-160.58l102.64 0c198.82,-207.04 463.19,-411.85 759.89,-411.85l241.57 0c164.98,0 324.64,102.67 448,205.09l154.97 87.13c126.65,-166.54 289.63,-291.42 497.14,-349.09 150.26,-59.17 307.87,-89.35 469.43,-89.35l6.74 0 329.45 37.02c106.66,-62.14 256.96,-140.66 370.84,-140.66l36.1 0c345.95,0 537.53,227.08 615.63,547.06l2.26 9.29 19.67 242.99 0 21.43c15.2,10.7 30.29,21.75 45.2,33.13l8.01 -24.71c36.61,-112.94 86.45,-218.98 152.81,-306.75 101.71,-249.1 278.21,-445.12 570.21,-449.26l252.2 -37.99 9.01 0c243.48,0 457.65,76.13 620.35,247.4 214.51,-101.31 487.36,-209.48 714.1,-209.48l18.46 0 55.16 17.35 277.08 -32.07 0 16.69c362.65,24.41 703.99,271.13 961.4,507.23l3.49 3.21 3.23 3.46c122,131.01 218.98,273.14 287.81,426.57l0 -4.09 2.43 -11.9c23.91,-117.15 76.75,-221.95 147.62,-314.87 45.76,-125.87 125.24,-235.71 222.14,-330.27l4.65 -4.53 5.11 -4.01c154.57,-121.26 334.33,-177.41 530.47,-177.41l8.16 0 8.09 1.11c59.54,8.11 134.9,22.54 191.99,56.23 154.21,-81.58 329.71,-148.79 503.07,-152.52l117.84 -28.75 20.92 15.77 66.51 -5.68 109.25 0 44.65 -11.54 13.94 11.54 11.53 0 49.01 9.33 4.01 -3.67 50.74 2.92c56.93,3.27 115.47,6.89 171.97,14.68 0.77,0.1 1.55,0.21 2.33,0.32l3.25 -3.26 58.6 7.54c158.65,20.41 318.71,43.04 475.66,74.06 88.3,17.46 194.59,39.75 278.07,75.99 297.03,95.27 502.32,265.37 612.35,503.02 71.34,-255.81 406.84,-439.22 617.55,-541.97l5.99 -2.92 6.27 -2.23c151.32,-54.04 321.24,-81.53 480.59,-97.99l6.17 -0.64 6.2 0c184.85,0 380.57,60.48 552.76,131.04 158.64,-44.62 319.41,-86.29 480.81,-118.61 115.25,-23.09 242.35,-44.79 360.13,-44.79 676.86,0 1264.39,228.42 1524.99,889.56l2.09 5.3 1.57 5.47c53.86,186.65 70.61,411.2 80.49,604.69l0.15 3.06 0 3.06c0,321.38 -97.91,623.87 -251.89,901.57 100.35,90.68 175.96,205.6 175.96,347.75 0,119.26 -53.09,219.37 -129.25,302.18 -11.38,49.72 -32.11,95.59 -59.39,137.79 58.01,166.75 76.24,352.74 77.54,524.58l15.84 46.52 0 19.92c0,357.5 -79.32,664.22 -248.07,906.12 -148.05,340.81 -427.62,589.09 -857.69,718.59 -149.44,52.16 -322.37,83.32 -478.13,109.16 -255.4,42.38 -514.36,72.73 -771.81,99.65l-6.23 0.65 -6.27 0c-653.21,0 -1449.13,-98.95 -1941.48,-577.61 -101.17,96.78 -235.9,184 -334.83,245.05l-5.54 3.42 -5.87 2.8c-157.05,74.84 -434.32,203.99 -614.57,209.56 -207.09,37.32 -418.65,62.14 -627.84,83.75l-46.83 4.84 -10.16 -7.62 -217.22 33.69 0 -9.23c-6.86,0.17 -13.68,0.24 -20.41,0.24l-43.49 0c-254.91,0 -507.32,-51.36 -720.56,-196.18 -130.11,-58.08 -267.06,-140.74 -343.99,-264.27 -6.98,7.53 -13.98,14.99 -20.97,22.39 -185.31,203.14 -415.94,324.24 -693.14,324.24l-105.49 0c-293.37,0 -668.73,-33.2 -921.74,-213.18 -247.18,185.82 -536.68,329.78 -851.36,329.78l-127.71 0c-604.82,0 -1097.29,-235.11 -1434.58,-742.16 -5.31,-7.97 -10.49,-16.02 -15.57,-24.13 -66.05,58.45 -136.98,111.64 -209.97,160.3l-2.08 1.36 -305.35 194.58 -799.96 275.84 -122.38 23.16 -11.28 0c-245.42,0 -471.76,-78.13 -677.45,-204.95 -80.53,56.03 -173.95,101.31 -271.11,101.31l-103.48 0 -15.89 -4.44c-144.34,-40.36 -280.34,-117.84 -327.57,-253.75 -90.73,126.53 -218.8,235.8 -325.84,317.67l-4.46 3.41 -4.76 2.98c-233.94,146.53 -536.25,183.99 -806.94,183.99l-7.04 0 -6.98 -0.82c-308.42,-36.22 -587.37,-202.65 -821.83,-398.17l-10.53 -8.78 -8.28 -10.93c-253.62,-334.49 -472.33,-740.79 -472.33,-1171.12l0 -309.09c0,-188.8 23.89,-383.84 52.91,-570.17 36.73,-235.84 85.28,-470.93 138.78,-703.77 -150.55,-134.87 -191.68,-348.39 -191.68,-548.21l0 -184.16c0,-157.52 64.91,-301.51 158.91,-428.51zm9068.22 24.82l8.71 -17.43c-4.75,-6.21 -9.39,-12.47 -13.92,-18.81 1.89,12.02 3.62,24.11 5.2,36.24z"/>
  </g>
  <g id="_1864634307808">
   <path class="fil1" d="M4346.62 335.1l36.1 0c258.19,0 424.76,151.76 498.8,455.31l18.5 228.57 0 80.51c240.6,155.47 360.92,321.12 360.92,496.95l0 83.29 -32.39 227.65c79.59,284.11 142.51,573.75 189.71,868.04l0 102.72 -51.82 620.96c136.96,153.62 206.37,374.79 206.37,664.44 0,299.84 -178.61,568.21 -533.97,805.12l-293.36 186.94 -778.27 268.36 -102.72 19.44c-227.66,0 -451.61,-74.96 -672.78,-224.88l-18.5 0c-99.02,80.51 -185.09,121.24 -257.27,121.24l-86.99 0c-172.12,-48.13 -257.26,-130.49 -257.26,-246.16l0 -206.36 -106.42 0c0,155.47 -131.41,335 -395.16,536.73 -175.83,110.13 -422.92,165.65 -743.11,165.65 -244.31,-28.69 -496.95,-152.7 -758.83,-371.09 -298.91,-394.22 -447.9,-760.69 -447.9,-1098.47l0 -309.09c0,-294.28 68.48,-735.7 206.36,-1323.35 -137.88,-82.36 -206.36,-248.93 -206.36,-498.8l0 -184.16c0,-210.99 148.99,-432.17 447.9,-661.67 180.45,-97.17 312.79,-146.21 397.93,-146.21l154.54 0c253.57,-274.85 489.55,-411.82 707.95,-411.82l241.53 0c106.42,0 233.21,61.08 379.42,184.17l260.04 146.21c130.49,-207.3 296.13,-338.7 498.8,-393.3 138.81,-55.53 283.17,-83.29 431.24,-83.29l362.76 40.72c161.03,-96.25 275.77,-144.37 344.25,-144.37zm-1482.52 807.89c115.68,251.71 173.98,623.73 173.98,1116.98 -58.3,634.83 -179.53,952.25 -363.69,952.25l-51.82 0c-81.44,-49.05 -122.16,-118.46 -122.16,-209.14l103.64 -786.61 -16.65 -18.5 0 -22.21 16.65 -21.28c-34.24,-673.71 -172.12,-1073.48 -412.73,-1198.42l-347.03 -84.21 -67.56 0c-314.65,0 -688.51,476.58 -1122.53,1428.84 -125.86,448.83 -189.71,800.49 -189.71,1054.98 0,661.67 115.68,1185.46 347.03,1572.28 170.28,220.25 405.33,331.3 705.17,331.3 343.33,0 568.21,-131.41 674.63,-393.3l16.66 -84.22c-334.07,-229.51 -501.58,-539.51 -501.58,-930.05l0 -186.93c24.99,-563.58 134.19,-845.84 327.6,-845.84l51.82 0 86.99 143.44c-137.88,291.5 -206.36,573.75 -206.36,848.61 27.77,254.48 124.93,475.66 293.36,661.67 167.5,83.28 322.96,124.93 466.41,124.93 158.25,0 348.89,-110.13 569.13,-331.3 115.68,-231.35 173.06,-403.48 173.06,-517.31l0 -290.58 -157.32 -764.39 -15.74 -62c26.84,-83.29 67.56,-124.94 122.16,-124.94 110.13,0 305.38,220.25 584.86,661.67 172.12,235.06 258.19,399.78 258.19,496.03 -24.05,83.28 -46.27,124.93 -67.56,124.93l-16.65 -19.44 -87 40.72c-28.69,0 -103.64,-83.29 -224.87,-248.94l-16.66 0 16.66 21.28 0 21.28c-68.48,382.2 -177.68,684.82 -327.6,908.76 -96.25,124.93 -159.17,186.94 -190.64,186.94 39.8,148.07 322.05,237.84 846.75,268.37l50.9 0c52.76,0 230.43,-220.25 533.97,-661.67 173.98,-368.31 260.98,-761.61 260.98,-1178.98 0,-517.31 -196.19,-1158.62 -588.57,-1924.87 -249.87,-271.14 -479.37,-421.99 -688.51,-453.45l-260.98 0c-174.9,0 -358.13,116.6 -549.69,349.81l-87 43.49zm-2139.56 2461.6l33.32 0 86.06 122.16 0 268.37c109.2,484.91 229.51,726.45 363.7,726.45l15.73 19.44 0 62c-51.82,111.05 -114.75,165.65 -189.71,165.65l-15.74 0c-253.56,-229.51 -379.42,-546.92 -379.42,-951.33l15.74 -352.58 70.33 -60.16zm672.78 1198.42l35.16 0 51.82 62.93 0 62c-62,124.94 -171.2,186.94 -328.52,186.94l-50.9 -84.22c97.17,-151.76 195.27,-227.65 292.44,-227.65z"/>
   <path id="1" class="fil1" d="M6057.72 370.26c251.71,0 446.05,89.77 583.01,268.37l21.28 0c312.8,-153.62 556.18,-230.43 730.15,-230.43l62.01 19.44 168.42 -19.44 0 19.44 62.01 -19.44c278.55,0 591.34,159.17 938.38,477.52 250.78,269.3 376.64,575.61 376.64,918.94l21.28 0c79.58,0 148.99,121.23 209.14,363.69l0 94.39c0,79.59 -35.17,182.31 -105.5,306.32 375.72,856.94 563.58,1545.45 563.58,2066.46 0,124.01 -103.64,297.05 -311.87,517.31 -173.06,189.71 -374.8,285.03 -604.3,285.03l-105.49 0c-443.28,0 -749.59,-82.37 -919.87,-247.09 -297.98,242.46 -582.08,363.69 -853.23,363.69l-127.71 0c-582.09,0 -1027.22,-229.51 -1334.46,-688.51 -110.13,-168.43 -164.72,-366.47 -164.72,-594.12l-22.21 -94.39 22.21 -19.44 0 -18.5 -22.21 -19.44c14.8,-254.48 104.57,-567.28 268.36,-938.38l43.5 -151.76c-127.71,0 -238.76,-101.8 -330.38,-306.32l-24.99 -210.99 0 -37.94c0,-325.74 84.22,-555.25 252.64,-688.51l0 -113.83c0,-148.99 48.13,-275.78 143.44,-382.19 -110.13,0 -206.36,-141.6 -289.66,-423.85 99.02,-305.38 265.59,-458.08 498.8,-458.08l251.71 -37.94zm40.71 1491.77l19.44 18.52 0 19.43 -165.65 975.4 -311.87 976.31c0,677.41 146.21,1092.92 439.57,1244.69 245.24,113.82 481.22,170.28 707.02,170.28l22.21 -18.52 18.5 0 65.71 18.52c387.74,-59.23 582.08,-155.48 582.08,-286.89 50.9,0 99.94,-108.27 147.14,-325.74 0,-474.74 -147.14,-857.86 -439.57,-1146.59 9.26,-75.89 30.55,-113.83 64.79,-113.83l-21.28 -19.44 0 -56.45c0,-47.2 235.98,-92.53 707.94,-136.04l62.01 0c108.27,0 177.67,32.39 209.14,95.32l0 116.6c40.71,0 62,31.46 62,94.39l-626.5 95.31c210.07,323.9 314.63,636.7 314.63,938.38l0 56.45 -62 287.81c0,106.42 257.26,183.23 772.72,230.43 360.91,-85.14 541.36,-219.33 541.36,-401.63 41.65,-83.29 62.93,-185.09 62.93,-306.32l0 -37.94c0,-233.21 -180.45,-820.84 -542.29,-1761.99l-124.93 -1108.65c-19.44,0 -48.12,-102.72 -84.22,-306.32 -163.8,-230.43 -310.94,-345.18 -438.64,-345.18 -115.68,-75.88 -248.01,-113.82 -396.08,-113.82 -493.25,0 -966.13,165.65 -1417.74,496.02 -111.97,257.26 -168.43,473.81 -168.43,651.49zm1461.24 97.17c98.09,16.66 146.21,41.65 146.21,75.89l-21.28 57.37 21.28 113.83 -124.01 116.6 208.22 284.11 0 78.66c0,25.91 -49.05,44.43 -148.99,57.38l-18.52 -19.44 -22.21 0 -18.5 19.44 -22.21 0c-45.35,-5.56 -108.28,-50.9 -189.72,-136.04 -89.77,77.73 -166.58,116.6 -227.65,116.6l-105.5 -94.39 0 -22.21 211 -284.11 -126.79 -192.49c13.88,-101.8 35.16,-151.76 62,-151.76l124.94 0 105.49 94.39c34.24,-55.53 83.29,-93.47 146.22,-113.83zm-1628.74 1760.14l64.78 56.46 0 171.2c0,283.17 75.89,551.55 227.66,805.11l0 18.5c0,34.24 -75.89,60.16 -227.66,75.89 -139.73,-195.27 -209.14,-380.35 -209.14,-555.25l0 -57.37c1.86,-296.14 49.98,-468.26 144.37,-514.54zm376.64 1127.16l43.5 57.38 0 75.88 -106.42 78.67 -83.29 0 -43.49 -40.72 21.28 -57.37 -40.72 -37.94c0,-37.94 69.41,-62.93 209.14,-75.89z"/>
   <path id="2" class="fil1" d="M10713.49 389.7l11.11 8.33 10.18 0 98.09 -8.33 32.39 0 11.11 8.33 10.18 -8.33 22.21 0 11.11 8.33 32.38 -8.33 10.19 8.33 11.1 0 11.11 -8.33 11.1 0 97.17 18.5 11.11 -10.18c144.37,8.33 216.55,18.5 216.55,29.61l11.1 -11.11c381.27,49.05 623.73,97.17 726.45,143.44 419.21,132.33 629.29,420.14 629.29,862.49l0 151.76c-63.85,335.93 -128.64,548.78 -195.27,637.61 -20.36,10.19 -67.56,86.07 -141.59,227.66 49.04,0 121.23,132.33 217.47,397.93l10.18 65.7c0,193.41 -46.27,360.92 -140.66,504.35l0 7.41c144.37,83.29 217.47,162.87 217.47,238.76 13.88,0 21.28,47.2 21.28,141.59l0 56.45 11.11 37.94 -65.71 276.7 11.11 46.27 -11.11 10.18 0 8.33 11.11 29.61c0,18.5 -11.11,27.77 -32.39,27.77l0 48.12 11.11 -10.19 21.28 0 0 29.61 11.1 37.94 -11.1 37.94c28.68,0 43.49,6.48 43.49,18.5l-11.11 8.33 0 11.11 -32.38 -11.11 -11.11 0 0 11.11c29.61,0 43.49,12.96 43.49,37.94l32.39 0c-6.48,43.49 -17.58,64.78 -32.39,64.78l11.11 11.11 0 8.33c0,12.96 -11.11,18.5 -32.39,18.5l11.11 49.04c-50.9,20.36 -76.81,45.35 -76.81,75.89l11.11 8.33 0 11.11c0,53.67 -36.1,107.35 -108.28,159.17 -50.9,88.84 -184.16,199.89 -401.63,334.07 -275.77,131.41 -467.33,198.05 -574.68,198.05 -167.51,30.54 -377.58,58.29 -628.36,84.21l-11.11 -8.33 -11.11 0 -119.38 18.52 0 -10.19c-32.38,13.89 -79.58,21.28 -140.66,21.28l-43.49 0c-267.44,0 -487.69,-60.15 -661.67,-181.38 -162.87,-71.26 -267.44,-152.7 -314.63,-247.09 -64.78,-138.82 -97.17,-247.09 -97.17,-322.97l21.28 -64.78 -10.18 -37.94 86.06 -379.42 0 -67.55 11.1 -8.33c-32.38,-186.01 -93.47,-331.3 -184.16,-436.8 -61.07,-86.06 -126.78,-238.75 -195.27,-455.3l11.11 0 -11.11 -11.11 0 -94.39c0,-74.03 36.1,-169.34 108.28,-285.03 74.03,-164.72 121.23,-252.64 140.66,-265.59l11.1 -8.33 0 -10.18c-144.36,-117.53 -216.54,-257.26 -216.54,-418.29l-32.39 -178.61 10.18 -11.1 -10.18 -46.27 0 -94.39c13.88,-170.28 43.49,-306.32 86.06,-409.04l75.89 -151.77c-93.47,-98.09 -140.66,-198.96 -140.66,-304.46l0 -37.94c26.83,-131.41 99.94,-254.48 216.55,-368.31 128.63,-100.87 280.39,-151.77 456.23,-151.77 115.68,15.74 173.05,41.65 173.05,75.89l32.39 0c198.96,-113.82 372.94,-171.2 521.01,-171.2l75.88 -18.5zm-1095.69 1108.64l11.1 11.11 0 8.33 -43.49 132.33 11.11 29.61c-22.21,0 -32.39,57.37 -32.39,171.2l-11.1 0 11.1 8.33 -43.49 161.95 0 46.27c3.7,105.49 75.89,272.99 216.55,504.35 115.68,106.42 263.75,160.09 445.12,160.09l32.39 0 205.44 -8.33 33.32 8.33 32.38 -8.33 10.18 8.33 54.6 -8.33 54.6 0c713.5,0 1162.32,-107.35 1344.63,-322.04 202.66,-134.19 303.54,-238.76 303.54,-314.65 72.18,-132.33 108.27,-217.47 108.27,-255.42l0 -199.88c0,-189.72 -57.37,-363.7 -173.05,-521.01 -170.28,-138.82 -336.85,-249.87 -498.8,-333.15l0 -19.44 21.28 0 260.04 133.26 0 -19.43c-189.72,-119.38 -348.89,-182.31 -476.59,-189.72l-33.32 11.11 -86.06 -19.44 -358.14 0c-383.12,25.91 -625.58,63.85 -726.45,113.83 -175.83,85.14 -273,138.81 -293.35,160.09 -75.89,65.71 -165.65,198.05 -271.15,398.86l-108.27 151.76zm531.19 -368.31l43.49 56.45 0 37.94c-55.53,45.35 -87.91,111.05 -97.16,198.05l-43.5 49.04 11.11 26.83c-110.13,99.95 -168.42,194.34 -173.98,285.03l11.11 10.18 -11.11 46.27 0 49.05 11.11 37.94 -11.11 37.94 0 8.32c22.22,0 32.39,6.48 32.39,18.52l0 19.43 -21.28 0 0 18.52c28.69,3.7 43.49,13.88 43.49,30.54l-32.38 26.83 119.38 170.28c-31.47,49.04 -67.56,77.73 -109.2,86.99l-32.39 37.94 11.11 8.33 32.39 11.11 0 7.41 108.27 -56.46 22.21 0c39.79,0 72.18,24.99 97.17,75.89 0,62.93 -47.2,130.49 -140.66,200.82 -137.88,-14.8 -206.36,-43.49 -206.36,-86.99 5.55,-28.69 30.54,-62.93 75.88,-102.72 0,-16.66 -47.2,-33.32 -140.66,-49.05l-32.38 11.11 0 -11.11c-43.49,-77.73 -87,-245.23 -130.49,-501.57 0,-136.04 100.87,-329.45 303.54,-580.24 111.98,-119.38 198.97,-178.61 260.04,-178.61zm1128.08 379.42l0 26.83 -21.28 0 -22.21 -18.5 11.11 -8.33 32.38 0zm-227.65 1441.79l-11.11 -10.18 -10.18 0 -434.02 67.56 -32.38 -11.11 -98.09 11.11 -53.68 0 -11.1 -11.11 -11.11 11.11 -161.95 -11.11 -43.49 0 -43.49 -8.33 -11.11 8.33 -11.1 0c-165.65,-19.43 -292.44,-53.67 -379.42,-102.72l-32.39 -29.61 -11.1 0c0,15.74 -43.5,63.85 -129.57,143.44 -14.8,130.48 -29.61,202.66 -43.49,216.55l11.11 11.1 -11.11 64.78 0 75.89 -11.1 11.11 0 8.33c14.8,0 28.68,50.9 43.49,151.76 21.28,52.76 148.06,198.05 379.42,436.79 43.49,87.92 64.78,161.03 64.78,219.33l0 8.33c0,55.53 -21.28,128.63 -64.78,219.32l11.1 8.33 0 10.18c-86.99,192.5 -130.48,337.79 -130.48,436.8 0,111.97 32.38,184.16 98.09,217.47 267.44,75.88 574.68,113.82 921.71,113.82l75.89 0 43.49 10.19 10.19 -10.19 11.1 0 11.11 10.19 86.99 -18.52 10.19 8.33 11.1 0 521.01 -75.88c0,-11.11 57.38,-33.32 173.06,-65.71 282.25,-121.23 455.3,-257.26 521.01,-409.04l0 -8.33 -11.11 -49.04 21.28 -18.5 0 -37.94c-200.82,-267.45 -316.49,-555.25 -347.03,-862.49 43.49,-144.37 105.5,-289.66 184.16,-435.87l75.89 -334.07c0,-93.47 -21.28,-188.79 -64.78,-284.11l-21.28 0c-151.77,100.87 -257.27,151.77 -314.65,151.77 0,26.83 -260.04,81.44 -781.05,161.94zm1551 1613.93l-11.1 75.89 0 7.41 11.1 0c5.55,-37.94 12.96,-56.45 21.28,-56.45l-10.18 -26.84 -11.11 0z"/>
   <path id="3" class="fil1" d="M15229.53 392.47c728.3,0 1199.34,271.15 1413.11,813.45 37.94,131.41 62.93,323.9 75.89,577.46 0,303.54 -94.4,610.78 -282.26,921.72l0 12.96c136.97,98.09 206.37,202.66 206.37,314.65 0,121.23 -81.44,235.06 -244.31,341.47 88.83,153.62 133.26,368.32 133.26,643.17l15.73 46.27c0,682.96 -300.76,1115.13 -903.2,1295.58 -205.44,72.18 -614.48,139.74 -1225.25,203.6 -918.01,0 -1558.4,-203.6 -1922.09,-610.78 -124.93,-239.68 -186.94,-459.01 -186.94,-655.19 0,-323.9 106.42,-588.57 320.19,-794.94l0 -49.04c-99.94,-121.23 -148.99,-318.35 -148.99,-593.19l0 -62.93 15.74 -62 -15.74 -62.01 0 -109.19c0,-131.41 68.48,-335.01 205.45,-609.85l-18.52 0c-101.8,-59.23 -151.76,-116.6 -151.76,-170.28l0 -95.31c0,-110.13 119.38,-260.97 357.2,-452.53 -36.09,-66.63 -53.67,-129.57 -53.67,-186.94 0,-172.12 187.86,-348.89 563.58,-532.12 113.82,-40.71 264.67,-72.17 452.53,-91.61 148.99,0 330.37,46.27 545.06,137.88 399.78,-113.82 682.96,-170.28 848.61,-170.28zm-2391.28 2342.24l0 186.94c0,329.45 169.35,558.94 507.13,688.51l209.14 29.61c201.74,0 421.99,-72.18 658.89,-216.55l94.39 0c68.48,0 118.46,30.54 148.99,92.55l0 62c-178.61,323.9 -278.55,526.56 -300.76,609.85 -99.03,41.65 -180.46,62.93 -244.32,62.93 0,-16.66 -37.93,-37.02 -113.82,-62.93l0 -62.01c0,-52.75 37.94,-151.76 113.82,-297.98l-18.5 0c-136.96,32.38 -269.3,48.12 -396.08,48.12 -182.3,0 -390.52,-57.38 -623.73,-173.06l-15.73 0c-113.83,140.66 -171.2,297.06 -171.2,469.19l0 78.67c0,411.81 132.33,671.85 396.07,780.12 292.44,188.79 744.97,282.25 1355.74,282.25 240.6,0 597.82,-57.37 1073.48,-173.05 439.57,-153.62 658.89,-456.23 658.89,-905.98 0,-506.21 -81.44,-818.07 -244.31,-935.6 0,-23.14 -37.94,-64.78 -113.83,-124.01 -292.43,102.72 -543.22,154.54 -750.51,154.54l-19.44 0c-303.54,0 -580.24,-83.29 -829.17,-249.87 -238.76,-223.95 -358.14,-437.72 -358.14,-639.46 0,-407.19 232.29,-698.69 696.84,-876.38l113.83 -15.73c162.87,7.41 244.31,33.32 244.31,78.66l0 15.74c-29.61,39.79 -148.99,102.72 -358.14,186.94 -225.8,197.11 -338.7,395.15 -338.7,594.12 0,231.35 150.84,423.84 452.53,577.46 133.26,52.75 289.66,78.66 469.19,78.66l56.45 0c502.5,-110.12 754.22,-219.32 754.22,-327.59 250.78,-251.71 376.64,-553.4 376.64,-905.98l0 -94.4 18.5 -16.65 -18.5 -13.89 0 -15.73 18.5 -124.94c-37.94,-263.74 -106.42,-467.33 -205.44,-609.84 -225.8,-238.76 -496.02,-358.14 -810.67,-358.14l-189.71 0c-403.49,41.64 -874.52,254.48 -1413.11,639.46 -588.57,496.03 -883.77,990.2 -883.77,1483.45zm2993.72 1157.7c0,19.43 18.5,29.61 56.45,29.61l19.44 16.66 0 15.73c-24.06,92.55 -73.11,138.82 -148.99,138.82l18.5 15.74 0 16.65 111.05 -32.38c37.94,37.94 57.38,74.95 57.38,111.05l0 15.74c0,376.64 -200.82,672.77 -602.45,889.32 0,20.36 -31.47,30.54 -94.4,30.54 -75.88,-24.06 -113.82,-44.43 -113.82,-62.93l0 -29.61c218.4,-159.17 375.72,-351.65 471.96,-577.46l18.52 -78.66 -18.52 -203.6c28.69,0 47.2,-25.91 56.46,-78.66l-19.44 0c-57.37,-19.44 -88.84,-40.72 -94.39,-62.01l0 -29.61c62.93,-83.28 157.32,-124.93 282.25,-124.93z"/>
   <path class="fil2" d="M15348.96 177.66c728.32,0 1199.35,271.15 1413.13,813.46 37.94,131.41 62.93,323.9 75.89,577.47 0,303.54 -94.4,610.79 -282.26,921.73l0 12.96c136.97,98.09 206.37,202.67 206.37,314.65 0,121.24 -81.44,235.06 -244.32,341.49 88.84,153.62 133.27,368.31 133.27,643.17l15.73 46.27c0,682.97 -300.76,1115.15 -903.21,1295.6 -205.45,72.18 -614.49,139.74 -1225.27,203.6 -918.02,0 -1558.42,-203.6 -1922.12,-610.79 -124.93,-239.68 -186.94,-459.01 -186.94,-655.2 0,-323.9 106.42,-588.58 320.2,-794.94l0 -49.05c-99.95,-121.24 -148.99,-318.35 -148.99,-593.2l0 -62.93 15.73 -62 -15.73 -62.01 0 -109.19c0,-131.41 68.48,-335.01 205.44,-609.86l-18.5 0c-101.8,-59.23 -151.77,-116.61 -151.77,-170.28l0 -95.32c0,-110.13 119.38,-260.97 357.21,-452.53 -36.1,-66.63 -53.68,-129.57 -53.68,-186.94 0,-172.13 187.87,-348.89 563.59,-532.13 113.83,-40.71 264.67,-72.18 452.54,-91.61 148.99,0 330.37,46.27 545.07,137.88 399.78,-113.83 682.97,-170.28 848.62,-170.28z"/>
   <path class="fil2" d="M10832.86 174.88l11.11 8.33 10.18 0 98.09 -8.33 32.39 0 11.11 8.33 10.18 -8.33 22.21 0 11.11 8.33 32.39 -8.33 10.18 8.33 11.11 0 11.1 -8.33 11.11 0 97.17 18.52 11.1 -10.19c144.37,8.33 216.55,18.52 216.55,29.61l11.11 -11.1c381.28,49.04 623.74,97.17 726.46,143.44 419.22,132.33 629.29,420.15 629.29,862.5l0 151.77c-63.85,335.93 -128.63,548.78 -195.27,637.62 -20.35,10.18 -67.56,86.06 -141.59,227.65 49.05,0 121.24,132.34 217.47,397.94l10.19 65.71c0,193.41 -46.27,360.92 -140.67,504.35l0 7.41c144.38,83.29 217.48,162.87 217.48,238.76 13.88,0 21.28,47.2 21.28,141.6l0 56.45 11.1 37.94 -65.7 276.7 11.1 46.27 -11.1 10.18 0 8.33 11.1 29.61c0,18.52 -11.1,27.77 -32.38,27.77l0 48.12 11.1 -10.18 21.28 0 0 29.61 11.11 37.94 -11.11 37.94c28.69,0 43.5,6.47 43.5,18.5l-11.11 8.33 0 11.11 -32.39 -11.11 -11.1 0 0 11.11c29.61,0 43.49,12.96 43.49,37.94l32.39 0c-6.48,43.49 -17.58,64.78 -32.39,64.78l11.11 11.1 0 8.33c0,12.96 -11.11,18.52 -32.39,18.52l11.11 49.04c-50.9,20.36 -76.81,45.35 -76.81,75.89l11.1 8.33 0 11.11c0,53.67 -36.09,107.35 -108.27,159.17 -50.9,88.84 -184.17,199.89 -401.64,334.08 -275.78,131.41 -467.34,198.05 -574.69,198.05 -167.51,30.54 -377.58,58.29 -628.37,84.21l-11.11 -8.33 -11.1 0 -119.39 18.52 0 -10.19c-32.38,13.89 -79.58,21.28 -140.66,21.28l-43.49 0c-267.45,0 -487.7,-60.15 -661.68,-181.38 -162.87,-71.26 -267.45,-152.7 -314.65,-247.09 -64.78,-138.82 -97.17,-247.1 -97.17,-322.98l21.28 -64.78 -10.18 -37.94 86.06 -379.42 0 -67.56 11.11 -8.33c-32.39,-186.01 -93.47,-331.3 -184.17,-436.8 -61.07,-86.06 -126.79,-238.76 -195.27,-455.31l11.11 0 -11.11 -11.11 0 -94.39c0,-74.03 36.1,-169.35 108.28,-285.03 74.03,-164.73 121.23,-252.65 140.66,-265.6l11.11 -8.33 0 -10.18c-144.38,-117.53 -216.56,-257.27 -216.56,-418.3l-32.38 -178.61 10.18 -11.1 -10.18 -46.27 0 -94.39c13.88,-170.29 43.49,-306.33 86.06,-409.05l75.89 -151.77c-93.47,-98.09 -140.66,-198.96 -140.66,-304.46l0 -37.94c26.83,-131.41 99.94,-254.49 216.55,-368.32 128.63,-100.87 280.4,-151.77 456.23,-151.77 115.69,15.74 173.06,41.65 173.06,75.89l32.39 0c198.97,-113.83 372.95,-171.2 521.01,-171.2l75.89 -18.52z"/>
   <path class="fil2" d="M6177.03 155.46c251.71,0 446.06,89.77 583.02,268.37l21.28 0c312.8,-153.62 556.18,-230.43 730.16,-230.43l62.01 19.43 168.43 -19.43 0 19.43 62 -19.43c278.56,0 591.36,159.17 938.39,477.52 250.79,269.31 376.65,575.62 376.65,918.96l21.28 0c79.59,0 148.99,121.23 209.14,363.69l0 94.4c0,79.58 -35.16,182.31 -105.49,306.32 375.72,856.95 563.58,1545.47 563.58,2066.49 0,124.01 -103.64,297.06 -311.87,517.32 -173.06,189.71 -374.8,285.03 -604.31,285.03l-105.49 0c-443.29,0 -749.6,-82.37 -919.88,-247.1 -297.99,242.47 -582.09,363.7 -853.25,363.7l-127.71 0c-582.09,0 -1027.23,-229.51 -1334.48,-688.52 -110.12,-168.43 -164.72,-366.47 -164.72,-594.13l-22.22 -94.39 22.22 -19.44 0 -18.5 -22.22 -19.44c14.81,-254.49 104.58,-567.28 268.38,-938.39l43.49 -151.77c-127.71,0 -238.76,-101.8 -330.38,-306.32l-24.99 -210.99 0 -37.94c0,-325.75 84.22,-555.26 252.65,-688.53l0 -113.82c0,-148.99 48.12,-275.78 143.44,-382.2 -110.13,0 -206.37,-141.6 -289.67,-423.85 99.03,-305.39 265.6,-458.09 498.81,-458.09l251.71 -37.94z"/>
   <path class="fil2" d="M4465.91 120.29l36.1 0c258.2,0 424.77,151.76 498.8,455.31l18.52 228.58 0 80.51c240.6,155.47 360.92,321.12 360.92,496.96l0 83.28 -32.39 227.66c79.59,284.11 142.52,573.77 189.72,868.05l0 102.73 -51.82 620.96c136.96,153.62 206.36,374.8 206.36,664.45 0,299.84 -178.61,568.22 -533.98,805.13l-293.36 186.94 -778.28 268.37 -102.72 19.44c-227.66,0 -451.62,-74.96 -672.79,-224.88l-18.5 0c-99.02,80.51 -185.09,121.24 -257.27,121.24l-86.99 0c-172.13,-48.13 -257.27,-130.49 -257.27,-246.16l0 -206.37 -106.42 0c0,155.48 -131.41,335.01 -395.16,536.75 -175.83,110.13 -422.92,165.65 -743.12,165.65 -244.31,-28.68 -496.96,-152.7 -758.86,-371.09 -298.91,-394.23 -447.9,-760.7 -447.9,-1098.49l0 -309.1c0,-294.28 68.48,-735.71 206.36,-1323.36 -137.88,-82.37 -206.36,-248.94 -206.36,-498.81l0 -184.16c0,-211 148.99,-432.18 447.9,-661.68 180.46,-97.17 312.8,-146.22 397.94,-146.22l154.54 0c253.57,-274.85 489.56,-411.82 707.96,-411.82l241.54 0c106.42,0 233.21,61.08 379.43,184.17l260.04 146.21c130.49,-207.3 296.14,-338.7 498.8,-393.3 138.82,-55.53 283.18,-83.29 431.25,-83.29l362.76 40.72c161.03,-96.25 275.78,-144.37 344.26,-144.37z"/>
   <path class="fil3" d="M12957.66 2519.93l0 186.94c0,329.46 169.35,558.96 507.13,688.52l209.14 29.61c201.75,0 422,-72.18 658.91,-216.55l94.39 0c68.48,0 118.46,30.54 148.99,92.55l0 62c-178.61,323.91 -278.56,526.58 -300.77,609.86 -99.02,41.65 -180.45,62.93 -244.31,62.93 0,-16.66 -37.94,-37.02 -113.83,-62.93l0 -62c0,-52.76 37.94,-151.77 113.83,-298l-18.52 0c-136.96,32.39 -269.3,48.13 -396.08,48.13 -182.31,0 -390.53,-57.38 -623.74,-173.06l-15.74 0c-113.83,140.66 -171.2,297.06 -171.2,469.19l0 78.67c0,411.82 132.33,671.86 396.08,780.14 292.44,188.78 744.98,282.25 1355.76,282.25 240.6,0 597.82,-57.37 1073.49,-173.06 439.58,-153.62 658.91,-456.23 658.91,-905.99 0,-506.21 -81.45,-818.08 -244.32,-935.61 0,-23.14 -37.94,-64.79 -113.83,-124.02 -292.44,102.73 -543.23,154.55 -750.52,154.55l-19.44 0c-303.55,0 -580.25,-83.29 -829.18,-249.87 -238.77,-223.96 -358.15,-437.73 -358.15,-639.48 0,-407.19 232.29,-698.69 696.85,-876.38l113.83 -15.74c162.88,7.41 244.32,33.32 244.32,78.67l0 15.73c-29.61,39.8 -148.99,102.73 -358.15,186.94 -225.8,197.12 -338.7,395.17 -338.7,594.13 0,231.36 150.84,423.85 452.53,577.47 133.27,52.76 289.66,78.67 469.2,78.67l56.45 0c502.5,-110.13 754.23,-219.33 754.23,-327.6 250.79,-251.71 376.64,-553.41 376.64,-906l0 -94.39 18.52 -16.66 -18.52 -13.88 0 -15.74 18.52 -124.93c-37.94,-263.75 -106.42,-467.34 -205.45,-609.86 -225.8,-238.76 -496.02,-358.14 -810.68,-358.14l-189.71 0c-403.49,41.65 -874.53,254.49 -1413.13,639.47 -588.58,496.03 -883.78,990.22 -883.78,1483.47z"/>
   <path class="fil4" d="M12719.82 4350.43l-11.11 75.89 0 7.41 11.11 0c5.55,-37.94 12.96,-56.46 21.28,-56.46l-10.19 -26.83 -11.1 0z"/>
   <path class="fil5" d="M11168.79 2736.48l-11.1 -10.19 -10.19 0 -434.02 67.56 -32.38 -11.1 -98.09 11.1 -53.68 0 -11.11 -11.1 -11.1 11.1 -161.96 -11.1 -43.49 0 -43.49 -8.33 -11.11 8.33 -11.1 0c-165.65,-19.44 -292.44,-53.68 -379.43,-102.72l-32.38 -29.61 -11.11 0c0,15.73 -43.49,63.85 -129.55,143.43 -14.81,130.49 -29.61,202.67 -43.5,216.55l11.11 11.11 -11.11 64.78 0 75.89 -11.1 11.11 0 8.33c14.8,0 28.69,50.9 43.49,151.77 21.28,52.75 148.07,198.04 379.42,436.79 43.5,87.92 64.79,161.03 64.79,219.33l0 8.33c0,55.53 -21.28,128.63 -64.79,219.33l11.11 8.33 0 10.18c-86.99,192.49 -130.49,337.79 -130.49,436.8 0,111.97 32.39,184.16 98.09,217.47 267.45,75.89 574.7,113.83 921.73,113.83l75.89 0 43.5 10.18 10.18 -10.18 11.11 0 11.1 10.18 87 -18.5 10.18 8.33 11.11 0 521.01 -75.89c0,-11.11 57.38,-33.32 173.06,-65.7 282.26,-121.24 455.31,-257.27 521.02,-409.05l0 -8.33 -11.11 -49.04 21.28 -18.52 0 -37.94c-200.82,-267.45 -316.49,-555.25 -347.03,-862.5 43.49,-144.37 105.49,-289.66 184.16,-435.87l75.89 -334.08c0,-93.47 -21.28,-188.79 -64.78,-284.11l-21.28 0c-151.77,100.87 -257.27,151.77 -314.66,151.77 0,26.83 -260.04,81.44 -781.06,161.95z"/>
   <polygon class="fil6" points="11396.45,1294.66 11396.45,1321.5 11375.17,1321.5 11352.96,1302.99 11364.06,1294.66 "/>
   <path class="fil7" d="M9737.16 1283.56l11.11 11.1 0 8.33 -43.49 132.33 11.1 29.61c-22.21,0 -32.38,57.38 -32.38,171.21l-11.11 0 11.11 8.33 -43.5 161.95 0 46.27c3.7,105.5 75.89,273 216.55,504.36 115.69,106.42 263.76,160.09 445.13,160.09l32.39 0 205.44 -8.33 33.32 8.33 32.39 -8.33 10.18 8.33 54.6 -8.33 54.6 0c713.51,0 1162.34,-107.35 1344.65,-322.05 202.66,-134.18 303.54,-238.76 303.54,-314.65 72.18,-132.33 108.28,-217.47 108.28,-255.42l0 -199.89c0,-189.72 -57.38,-363.7 -173.06,-521.02 -170.28,-138.81 -336.85,-249.87 -498.81,-333.15l0 -19.44 21.28 0 260.05 133.27 0 -19.44c-189.72,-119.38 -348.9,-182.31 -476.6,-189.72l-33.31 11.11 -86.07 -19.44 -358.14 0c-383.13,25.92 -625.59,63.85 -726.46,113.83 -175.84,85.14 -273.01,138.82 -293.36,160.1 -75.89,65.7 -165.65,198.05 -271.15,398.86l-108.28 151.77z"/>
   <path class="fil8" d="M6426.9 4631.76l43.49 57.38 0 75.89 -106.42 78.66 -83.29 0 -43.49 -40.71 21.28 -57.38 -40.71 -37.94c0,-37.94 69.4,-62.93 209.14,-75.89z"/>
   <path class="fil9" d="M6050.25 3504.59l64.78 56.45 0 171.2c0,283.18 75.89,551.56 227.66,805.13l0 18.5c0,34.25 -75.89,60.16 -227.66,75.89 -139.73,-195.27 -209.14,-380.35 -209.14,-555.25l0 -57.38c1.86,-296.14 49.98,-468.26 144.37,-514.54z"/>
   <path class="fil10" d="M6217.76 1647.25l19.43 18.52 0 19.43 -165.65 975.41 -311.87 976.33c0,677.42 146.21,1092.93 439.57,1244.7 245.24,113.83 481.23,170.28 707.03,170.28l22.21 -18.5 18.5 0 65.71 18.5c387.75,-59.23 582.09,-155.47 582.09,-286.88 50.9,0 99.95,-108.28 147.15,-325.75 0,-474.75 -147.15,-857.87 -439.58,-1146.61 9.25,-75.89 30.54,-113.83 64.78,-113.83l-21.28 -19.43 0 -56.46c0,-47.2 235.99,-92.55 707.96,-136.04l62.01 0c108.27,0 177.68,32.39 209.14,95.32l0 116.6c40.72,0 62.01,31.47 62.01,94.39l-626.52 95.32c210.08,323.9 314.65,636.7 314.65,938.39l0 56.45 -62 287.81c0,106.42 257.26,183.23 772.73,230.43 360.92,-85.14 541.37,-219.32 541.37,-401.63 41.65,-83.29 62.93,-185.09 62.93,-306.33l0 -37.93c0,-233.21 -180.46,-820.86 -542.3,-1762.03l-124.93 -1108.66c-19.44,0 -48.13,-102.72 -84.22,-306.32 -163.81,-230.43 -310.94,-345.18 -438.65,-345.18 -115.69,-75.89 -248.02,-113.83 -396.09,-113.83 -493.25,0 -966.14,165.65 -1417.76,496.03 -111.97,257.26 -168.42,473.81 -168.42,651.5z"/>
   <path class="fil11" d="M2983.38 928.19c115.68,251.71 173.98,623.74 173.98,1116.99 -58.3,634.85 -179.53,952.26 -363.7,952.26l-51.82 0c-81.44,-49.04 -122.15,-118.46 -122.15,-209.14l103.64 -786.61 -16.66 -18.52 0 -22.21 16.66 -21.28c-34.24,-673.72 -172.13,-1073.5 -412.74,-1198.43l-347.04 -84.22 -67.56 0c-314.65,0 -688.52,476.59 -1122.54,1428.87 -125.86,448.83 -189.72,800.49 -189.72,1054.99 0,661.68 115.68,1185.47 347.04,1572.31 170.28,220.24 405.33,331.3 705.18,331.3 343.34,0 568.22,-131.41 674.64,-393.31l16.66 -84.22c-334.08,-229.51 -501.59,-539.52 -501.59,-930.06l0 -186.94c24.99,-563.59 134.19,-845.84 327.61,-845.84l51.82 0 86.99 143.44c-137.88,291.5 -206.36,573.77 -206.36,848.61 27.76,254.49 124.93,475.67 293.36,661.68 167.5,83.29 322.97,124.94 466.42,124.94 158.25,0 348.89,-110.13 569.14,-331.3 115.68,-231.36 173.06,-403.49 173.06,-517.32l0 -290.59 -157.33 -764.4 -15.73 -62c26.83,-83.29 67.56,-124.94 122.16,-124.94 110.12,0 305.38,220.25 584.86,661.68 172.13,235.06 258.2,399.78 258.2,496.03 -24.06,83.29 -46.27,124.93 -67.56,124.93l-16.66 -19.43 -86.99 40.71c-28.69,0 -103.65,-83.28 -224.88,-248.93l-16.66 0 16.66 21.28 0 21.28c-68.48,382.2 -177.68,684.82 -327.6,908.77 -96.25,124.93 -159.18,186.94 -190.64,186.94 39.79,148.07 322.05,237.84 846.76,268.37l50.9 0c52.76,0 230.43,-220.25 533.98,-661.68 173.98,-368.32 260.97,-761.62 260.97,-1178.99 0,-517.32 -196.19,-1158.64 -588.57,-1924.9 -249.87,-271.15 -479.37,-421.99 -688.52,-453.46l-260.98 0c-174.9,0 -358.14,116.61 -549.7,349.82l-87 43.49z"/>
   <path class="fil12" d="M1516.57 4588.26l35.16 0 51.82 62.93 0 62.01c-62,124.93 -171.2,186.94 -328.52,186.94l-50.9 -84.22c97.17,-151.77 195.27,-227.66 292.44,-227.66z"/>
   <path class="fil12" d="M843.78 3389.84l33.32 0 86.06 122.16 0 268.37c109.2,484.92 229.51,726.46 363.7,726.46l15.74 19.44 0 62c-51.83,111.05 -114.75,165.65 -189.72,165.65l-15.74 0c-253.56,-229.51 -379.42,-546.93 -379.42,-951.34l15.74 -352.59 70.33 -60.15z"/>
   <path class="fil12" d="M15951.42 3677.65c0,19.43 18.5,29.61 56.45,29.61l19.44 16.65 0 15.74c-24.06,92.55 -73.11,138.82 -148.99,138.82l18.5 15.74 0 16.66 111.05 -32.39c37.94,37.94 57.38,74.96 57.38,111.05l0 15.74c0,376.64 -200.83,672.78 -602.46,889.33 0,20.36 -31.47,30.54 -94.39,30.54 -75.89,-24.05 -113.83,-44.42 -113.83,-62.92l0 -29.61c218.4,-159.18 375.72,-351.67 471.97,-577.47l18.5 -78.67 -18.5 -203.6c28.69,0 47.2,-25.91 56.45,-78.66l-19.43 0c-57.38,-19.44 -88.84,-40.72 -94.4,-62.01l0 -29.61c62.93,-83.29 157.32,-124.93 282.26,-124.93z"/>
   <path class="fil12" d="M10268.35 915.23l43.5 56.45 0 37.94c-55.53,45.35 -87.92,111.05 -97.17,198.05l-43.5 49.04 11.11 26.84c-110.13,99.94 -168.43,194.33 -173.98,285.03l11.11 10.18 -11.11 46.27 0 49.05 11.11 37.94 -11.11 37.94 0 8.32c22.21,0 32.39,6.48 32.39,18.52l0 19.43 -21.28 0 0 18.52c28.69,3.7 43.49,13.88 43.49,30.54l-32.39 26.83 119.38 170.28c-31.46,49.05 -67.55,77.74 -109.19,87l-32.39 37.94 11.11 8.33 32.38 11.1 0 7.41 108.28 -56.45 22.21 0c39.79,0 72.18,24.99 97.17,75.89 0,62.93 -47.2,130.48 -140.66,200.82 -137.89,-14.8 -206.37,-43.49 -206.37,-86.99 5.56,-28.69 30.54,-62.93 75.89,-102.73 0,-16.66 -47.2,-33.32 -140.66,-49.04l-32.39 11.1 0 -11.1c-43.49,-77.74 -86.99,-245.24 -130.48,-501.58 0,-136.04 100.86,-329.46 303.54,-580.25 111.98,-119.38 198.97,-178.61 260.04,-178.61z"/>
   <path class="fil12" d="M7679.01 1744.42c98.09,16.66 146.21,41.65 146.21,75.89l-21.28 57.38 21.28 113.82 -124.01 116.61 208.22 284.11 0 78.66c0,25.91 -49.04,44.43 -148.99,57.38l-18.5 -19.44 -22.22 0 -18.5 19.44 -22.21 0c-45.35,-5.55 -108.28,-50.9 -189.72,-136.04 -89.77,77.73 -166.58,116.6 -227.65,116.6l-105.5 -94.39 0 -22.21 210.99 -284.11 -126.78 -192.49c13.88,-101.8 35.16,-151.77 62,-151.77l124.94 0 105.49 94.39c34.24,-55.53 83.29,-93.47 146.22,-113.83z"/>
  </g>
  <polygon class="fil13" points="7191.74,4759.58 9344.27,4759.58 9502.56,5647.02 9344.27,6534.47 7191.74,6534.47 7557.91,5632.56 "/>
  <polygon class="fil14" points="9125.89,4759.58 14181.51,4759.58 14553.27,5647.02 14181.51,6534.47 9125.89,6534.47 9495.25,5642.22 "/>
  <polygon class="fil2" points="9669.28,5285.19 9848.34,5285.19 9967.7,5750.1 10287.81,5285.19 10476.62,5285.19 10316.02,6035.71 10136.98,6035.71 10217.28,5658.84 9955.77,6035.71 9868.95,6035.71 9769.12,5658.84 9688.82,6035.71 9508.69,6035.71 "/>
  <path id="1" class="fil2" d="M10665.44 6051.81c-68.73,0 -123.52,-18.61 -164.4,-55.83 -40.87,-37.22 -61.3,-87.69 -61.3,-151.39 0,-17.19 2.53,-39.02 7.59,-65.5 11.58,-53.69 33.46,-101.46 65.66,-143.34 32.18,-41.87 71.62,-74.26 118.26,-97.17 46.67,-22.9 97.49,-34.35 152.46,-34.35 36.18,0 68.36,5.01 96.58,15.03 28.21,10.02 50.99,24.34 68.36,42.96l9.77 -41.88 190.98 0 -110.68 515.38 -184.47 0 10.85 -51.54c-58.6,45.1 -125.15,67.64 -199.66,67.64zm81.39 -146.02c28.93,0 56.61,-7.34 83.01,-22.01 26.41,-14.68 47.21,-34.54 62.39,-59.59l19.53 -91.27c-4.33,-25.05 -16.46,-44.91 -36.35,-59.59 -19.88,-14.67 -44.3,-22.01 -73.24,-22.01 -39.07,0 -73.07,11.45 -102,34.35 -28.93,22.91 -47.75,54.04 -56.44,93.42 -2.89,12.16 -4.33,25.41 -4.33,39.73 0,57.98 35.81,86.97 107.43,86.97z"/>
  <path id="2" class="fil2" d="M11357.75 5451.62c-24.6,0 -44.49,-6.98 -59.68,-20.94 -15.2,-13.96 -22.79,-32.39 -22.79,-55.29 0,-21.48 5.78,-41.52 17.36,-60.13 11.58,-18.61 26.95,-33.46 46.12,-44.56 19.17,-11.1 39.61,-16.64 61.31,-16.64 24.59,0 44.67,7.34 60.22,22.01 15.55,14.68 23.33,33.47 23.33,56.37 0,3.58 -0.72,10.38 -2.17,20.4 -6.51,27.92 -21.7,51.37 -45.57,70.33 -23.87,18.97 -49.91,28.46 -78.13,28.46zm-109.6 68.71l190.97 0 -110.68 515.38 -190.97 0 110.68 -515.38z"/>
  <path id="3" class="fil2" d="M11652.91 6051.81c-41.96,0 -84.82,-4.11 -128.58,-12.35 -43.78,-8.23 -77.24,-19.85 -100.39,-34.89l29.31 -138.51c26.04,17.19 58.6,31.32 97.66,42.42 39.07,11.09 75.96,16.64 110.68,16.64 25.31,0 44.12,-1.79 56.42,-5.37 12.3,-3.58 19.89,-10.73 22.79,-21.48 1.46,-8.58 -1.08,-15.56 -7.59,-20.93 -6.51,-5.38 -18.99,-11.1 -37.45,-17.19 -18.44,-6.08 -39.96,-12.7 -64.56,-19.86 -52.09,-16.46 -89.51,-34 -112.3,-52.6 -22.8,-18.62 -34.19,-44.03 -34.19,-76.24 0,-13.59 1.45,-27.2 4.34,-40.79 23.87,-110.95 119,-166.42 285.39,-166.42 37.62,0 76.32,3.94 116.1,11.81 39.8,7.87 68.73,18.25 86.81,31.14l-29.29 136.36c-18.81,-14.31 -45.04,-26.12 -78.67,-35.44 -33.64,-9.3 -66.03,-13.96 -97.12,-13.96 -24.6,0 -44.13,2.33 -58.6,6.98 -14.48,4.66 -23.15,12.71 -26.04,24.17 -2.17,10.73 3.06,18.96 15.73,24.69 12.66,5.72 35.63,12.88 68.92,21.47 3.61,0.72 7.77,1.8 12.48,3.23 4.7,1.43 9.59,2.86 14.64,4.29 53.53,15.04 91.15,32.21 112.86,51.54 21.7,19.33 32.56,44.39 32.56,75.17 0,10.73 -1.81,25.77 -5.43,45.1 -10.85,50.1 -39.61,89.47 -86.27,118.1 -46.67,28.63 -113.39,42.94 -200.21,42.94z"/>
  <polygon id="4" class="fil2" points="12514.49,5285.19 12706.56,5285.19 12579.59,5875.73 12909.47,5875.73 12875.83,6035.71 12353.89,6035.71 "/>
  <path id="5" class="fil2" d="M13176.41 6051.81c-68.72,0 -123.52,-18.61 -164.39,-55.83 -40.88,-37.22 -61.31,-87.69 -61.31,-151.39 0,-17.19 2.54,-39.02 7.6,-65.5 11.58,-53.69 33.46,-101.46 65.65,-143.34 32.18,-41.87 71.62,-74.26 118.27,-97.17 46.66,-22.9 97.49,-34.35 152.46,-34.35 36.17,0 68.36,5.01 96.57,15.03 28.21,10.02 51,24.34 68.37,42.96l9.76 -41.88 190.98 0 -110.68 515.38 -184.47 0 10.85 -51.54c-58.59,45.1 -125.14,67.64 -199.66,67.64zm81.4 -146.02c28.93,0 56.6,-7.34 83.01,-22.01 26.4,-14.68 47.21,-34.54 62.38,-59.59l19.54 -91.27c-4.34,-25.05 -16.46,-44.91 -36.35,-59.59 -19.89,-14.67 -44.31,-22.01 -73.25,-22.01 -39.06,0 -73.07,11.45 -102,34.35 -28.93,22.91 -47.74,54.04 -56.43,93.42 -2.89,12.16 -4.34,25.41 -4.34,39.73 0,57.98 35.81,86.97 107.44,86.97z"/>
  <path id="6" class="fil2" d="M14006.53 6051.81c-73.79,0 -130.21,-22.54 -169.27,-67.64l-10.87 51.54 -184.46 0 170.37 -793.47 190.97 0 -69.44 319.97c24.59,-17.9 53.89,-32.04 87.89,-42.42 34,-10.38 68.37,-15.56 103.1,-15.56 70.16,0 125.15,18.42 164.93,55.29 39.79,36.87 59.68,86.79 59.68,149.78 0,23.62 -2.54,46.88 -7.6,69.79 -18.09,84.46 -55.88,151.03 -113.39,199.71 -57.51,48.68 -131.48,73.01 -221.91,73.01zm-18.44 -146.02c39.07,0 73.07,-11.27 102,-33.82 28.93,-22.54 47.38,-53.51 55.33,-92.87 2.9,-12.17 4.35,-25.41 4.35,-39.73 0,-58.69 -35.46,-88.04 -106.34,-88.04 -28.93,0 -56.79,7.34 -83.56,22.01 -26.77,14.68 -47.75,34.54 -62.93,59.59l-19.54 91.27c5.78,25.05 18.44,44.91 37.98,59.59 19.53,14.67 43.76,22.01 72.7,22.01z"/>
  <g style="clip-path:url(#id0)">
   <image x="7917.66" y="5217.54" width="858.96" height="858.96" xlink:href="logo_Images\logo_ImgID1.png"/>
  </g>
 </g>
</svg>
