<?xml version="1.0" encoding="UTF-8"?>
<!DOCTYPE svg PUBLIC "-//W3C//DTD SVG 1.1//EN" "http://www.w3.org/Graphics/SVG/1.1/DTD/svg11.dtd">
<!-- Creator: CorelDRAW 2020 (64 Bit) -->
<svg xmlns="http://www.w3.org/2000/svg" xml:space="preserve" width="72.5613mm" height="17.4948mm" version="1.1" style="shape-rendering:geometricPrecision; text-rendering:geometricPrecision; image-rendering:optimizeQuality; fill-rule:evenodd; clip-rule:evenodd"
viewBox="0 0 22906.06 5522.74"
 xmlns:xlink="http://www.w3.org/1999/xlink"
 xmlns:xodm="http://www.corel.com/coreldraw/odm/2003">
 <defs>
  <style type="text/css">
   <![CDATA[
    .fil0 {fill:#2C80BE}
    .fil1 {fill:#53E346}
    .fil2 {fill:white;fill-rule:nonzero}
   ]]>
  </style>
   <clipPath id="id0">
    <rect x="2258.78" y="1425.01" width="2672.73" height="2672.73"/>
   </clipPath>
 </defs>
 <g id="Camada_x0020_1">
  <metadata id="CorelCorpID_0Corel-Layer"/>
  <polygon class="fil0" points="-0,0 6697.79,0 7190.31,2761.37 6697.79,5522.74 -0,5522.74 1139.38,2716.35 "/>
  <polygon class="fil1" points="6018.29,0 21749.29,0 22906.06,2761.37 21749.29,5522.74 6018.29,5522.74 7167.58,2746.44 "/>
  <polygon class="fil2" points="7709.1,1635.5 8266.24,1635.5 8637.64,3082.1 9633.7,1635.5 10221.21,1635.5 9721.49,3970.8 9164.38,3970.8 9414.24,2798.15 8600.51,3970.8 8330.38,3970.8 8019.76,2798.15 7769.9,3970.8 7209.41,3970.8 "/>
  <path id="1" class="fil2" d="M10808.72 4020.9c-213.87,0 -384.34,-57.9 -511.56,-173.72 -127.16,-115.82 -190.73,-272.84 -190.73,-471.06 0,-53.48 7.86,-121.41 23.61,-203.8 36.02,-167.06 104.11,-315.71 204.31,-446.02 100.13,-130.28 222.84,-231.08 367.99,-302.36 145.21,-71.25 303.34,-106.89 474.4,-106.89 112.57,0 212.7,15.59 300.53,46.75 87.79,31.19 158.66,75.73 212.7,133.66l30.4 -130.31 594.27 0 -344.41 1603.65 -574 0 33.75 -160.36c-182.34,140.32 -389.42,210.46 -621.26,210.46zm253.24 -454.36c90.03,0 176.15,-22.82 258.29,-68.47 82.17,-45.68 146.89,-107.49 194.14,-185.43l60.77 -283.98c-13.48,-77.94 -51.2,-139.75 -113.11,-185.43 -61.87,-45.65 -137.86,-68.47 -227.89,-68.47 -121.57,0 -227.35,35.64 -317.38,106.89 -90.03,71.28 -148.59,168.16 -175.61,290.68 -9,37.85 -13.48,79.08 -13.48,123.62 0,180.41 111.43,270.6 334.27,270.6z"/>
  <path id="2" class="fil2" d="M12962.91 2153.34c-76.55,0 -138.43,-21.72 -185.71,-65.16 -47.29,-43.44 -70.9,-100.8 -70.9,-172.04 0,-66.83 17.99,-129.21 54.01,-187.1 36.02,-57.9 83.84,-104.11 143.51,-138.65 59.66,-34.54 123.24,-51.77 190.76,-51.77 76.52,0 138.99,22.82 187.39,68.47 48.39,45.68 72.61,104.14 72.61,175.39 0,11.14 -2.24,32.29 -6.76,63.48 -20.27,86.87 -67.52,159.83 -141.8,218.83 -74.28,59.03 -155.31,88.55 -243.1,88.55zm-341.03 213.81l594.23 0 -344.41 1603.65 -594.23 0 344.41 -1603.65z"/>
  <path id="3" class="fil2" d="M13881.31 4020.9c-130.56,0 -263.94,-12.78 -400.09,-38.42 -136.22,-25.6 -240.33,-61.78 -312.36,-108.56l91.2 -431c81.03,53.48 182.34,97.45 303.87,131.99 121.57,34.5 236.35,51.77 344.41,51.77 78.76,0 137.29,-5.56 175.55,-16.7 38.26,-11.14 61.9,-33.4 70.9,-66.83 4.55,-26.71 -3.35,-48.43 -23.61,-65.12 -20.27,-16.73 -59.1,-34.54 -116.52,-53.48 -57.39,-18.91 -124.35,-39.52 -200.9,-61.81 -162.07,-51.2 -278.52,-105.78 -349.42,-163.68 -70.93,-57.93 -106.38,-137 -106.38,-237.23 0,-42.3 4.51,-84.63 13.51,-126.93 74.28,-345.23 370.29,-517.84 888,-517.84 117.05,0 237.49,12.25 361.26,36.75 123.84,24.5 213.87,56.79 270.13,96.88l-91.14 424.3c-58.53,-44.54 -140.16,-81.29 -244.78,-110.27 -104.68,-28.95 -205.44,-43.44 -302.2,-43.44 -76.55,0 -137.32,7.26 -182.34,21.72 -45.05,14.49 -72.04,39.55 -81.03,75.19 -6.76,33.4 9.53,59 48.93,76.84 39.4,17.8 110.87,40.09 214.44,66.8 11.24,2.24 24.18,5.59 38.83,10.04 14.62,4.45 29.83,8.9 45.55,13.35 166.55,46.78 283.61,100.23 351.16,160.36 67.52,60.14 101.3,138.11 101.3,233.89 0,33.4 -5.62,80.18 -16.89,140.32 -33.75,155.88 -123.24,278.4 -268.42,367.48 -145.21,89.08 -352.83,133.63 -622.96,133.63z"/>
  <polygon id="4" class="fil2" points="16562.22,1635.5 17159.86,1635.5 16764.79,3473 17791.22,3473 17686.57,3970.8 16062.5,3970.8 "/>
  <path id="5" class="fil2" d="M18621.83 4020.9c-213.84,0 -384.34,-57.9 -511.53,-173.72 -127.19,-115.82 -190.76,-272.84 -190.76,-471.06 0,-53.48 7.89,-121.41 23.64,-203.8 36.02,-167.06 104.11,-315.71 204.28,-446.02 100.13,-130.28 222.84,-231.08 368.02,-302.36 145.18,-71.25 303.34,-106.89 474.4,-106.89 112.54,0 212.7,15.59 300.49,46.75 87.79,31.19 158.69,75.73 212.74,133.66l30.37 -130.31 594.27 0 -344.41 1603.65 -574 0 33.75 -160.36c-182.3,140.32 -389.39,210.46 -621.26,210.46zm253.27 -454.36c90.03,0 176.12,-22.82 258.29,-68.47 82.14,-45.68 146.89,-107.49 194.11,-185.43l60.8 -283.98c-13.51,-77.94 -51.2,-139.75 -113.11,-185.43 -61.9,-45.65 -137.89,-68.47 -227.92,-68.47 -121.54,0 -227.35,35.64 -317.38,106.89 -90.03,71.28 -148.56,168.16 -175.58,290.68 -9,37.85 -13.51,79.08 -13.51,123.62 0,180.41 111.43,270.6 334.3,270.6z"/>
  <path id="6" class="fil2" d="M21204.84 4020.9c-229.59,0 -405.17,-70.14 -526.71,-210.46l-33.81 160.36 -573.97 0 530.12 -2468.96 594.23 0 -216.08 995.62c76.52,-55.69 167.69,-99.69 273.47,-131.99 105.78,-32.29 212.74,-48.43 320.79,-48.43 218.32,0 389.42,57.33 513.2,172.04 123.81,114.72 185.71,270.06 185.71,466.07 0,73.49 -7.89,145.88 -23.64,217.16 -56.29,262.8 -173.88,469.95 -352.83,621.41 -178.96,151.46 -409.12,227.16 -690.48,227.16zm-57.39 -454.36c121.57,0 227.35,-35.07 317.38,-105.25 90.03,-70.14 147.42,-166.49 172.17,-288.97 9.03,-37.88 13.54,-79.08 13.54,-123.62 0,-182.62 -110.33,-273.95 -330.89,-273.95 -90.03,0 -176.72,22.82 -259.99,68.47 -83.31,45.68 -148.59,107.49 -195.82,185.43l-60.8 283.98c17.99,77.94 57.39,139.75 118.19,185.43 60.77,45.65 136.15,68.47 226.22,68.47z"/>
  <g style="clip-path:url(#id0)">
   <image x="2258.78" y="1425.01" width="2672.73" height="2672.73" xlink:href="txt-logo_Images\txt-logo_ImgID1.png"/>
  </g>
 </g>
</svg>
